<svg width="150" height="150" viewBox="0 0 150 150" fill="none" xmlns="http://www.w3.org/2000/svg">
<g clip-path="url(#clip0)">
<path d="M71.5293 56.3222V12.6178C71.5293 10.0124 73.6413 7.90039 76.2467 7.90039H138.514C141.119 7.90039 143.231 10.0124 143.231 12.6178V56.3222C143.231 58.9275 141.119 61.0395 138.514 61.0395H76.247C73.6413 61.0395 71.5293 58.9275 71.5293 56.3222Z" fill="#46738C"/>
<path d="M75.1728 45.2382C74.4797 45.2382 73.7935 44.9324 73.3312 44.3458C72.5303 43.3295 72.7043 41.8562 73.7206 41.0549L92.9276 25.9102C93.9442 25.109 95.4175 25.2833 96.2185 26.2996C97.0195 27.3159 96.8454 28.7892 95.8291 29.5905L76.6222 44.7352C76.1918 45.0736 75.6806 45.2382 75.1728 45.2382Z" fill="#FF8C46"/>
<path d="M37.5844 20.8535C43.2212 20.8535 47.7908 16.284 47.7908 10.6471C47.7908 5.01025 43.2212 0.440674 37.5844 0.440674C31.9475 0.440674 27.3779 5.01025 27.3779 10.6471C27.3779 16.284 31.9475 20.8535 37.5844 20.8535Z" fill="#FFB69E"/>
<path d="M44.6601 125.062C41.3795 125.062 38.7202 122.403 38.7202 119.122V71.6435C38.7202 68.3629 41.3798 65.7036 44.6601 65.7036C47.9405 65.7036 50.6001 68.3632 50.6001 71.6435V119.122C50.6004 122.403 47.9408 125.062 44.6601 125.062Z" fill="#343E6B"/>
<path d="M30.3208 125.062C27.0401 125.062 24.3809 122.403 24.3809 119.122V71.6435C24.3809 68.3629 27.0404 65.7036 30.3208 65.7036C33.6012 65.7036 36.2607 68.3632 36.2607 71.6435V119.122C36.261 122.403 33.6014 125.062 30.3208 125.062Z" fill="#414B82"/>
<path d="M79.2868 40.3024C77.8521 37.9917 74.8164 37.2816 72.5055 38.7159L62.5314 44.9087V35.7004C62.4994 29.3067 57.2251 24.1047 50.8311 24.1047H50.6489C47.5006 24.1047 27.4601 24.1047 24.2032 24.1047C17.6759 24.1047 12.3389 29.3333 12.3066 35.7599C12.3066 35.7681 12.3066 35.7766 12.3066 35.7848V72.1504C12.3066 74.884 14.5229 77.1004 17.2566 77.1004C19.9903 77.1004 22.2066 74.884 22.2066 72.1504V35.8015C22.2172 34.8602 23.1661 34.005 24.2032 34.005H24.3813V71.6438H50.6005C50.6005 68.1346 50.6005 37.9003 50.6005 33.9546C50.6269 33.9546 50.8577 33.9546 50.8314 33.9546C51.8216 33.9546 52.7219 34.7603 52.7269 35.7505V53.7607C52.7462 57.6171 56.9907 59.943 60.2491 57.92L77.7015 47.0843C80.0113 45.649 80.7212 42.613 79.2868 40.3024Z" fill="#252D5C"/>
<path d="M79.287 40.3024C77.8524 37.9917 74.8166 37.2816 72.5057 38.7159L62.5316 44.9087V35.7004C62.4997 29.3067 57.2254 24.1047 50.8313 24.1047C49.1406 24.1047 39.1152 24.1047 37.4893 24.1047V71.6432H50.6005C50.6005 68.134 50.6005 37.8997 50.6005 33.954C50.6268 33.954 50.8577 33.954 50.8313 33.954C51.8216 33.954 52.7218 34.7597 52.7268 35.7499V53.7601C52.7462 57.6165 56.9907 59.9424 60.2491 57.9194L77.7015 47.0837C80.0115 45.649 80.7214 42.613 79.287 40.3024Z" fill="#1B224A"/>
<path d="M79.2872 40.3026C77.8525 37.9919 74.8168 37.2818 72.5059 38.7162L77.7011 47.0839C80.0117 45.6492 80.7216 42.6132 79.2872 40.3026Z" fill="#FFB69E"/>
<path d="M70.758 39.7834L75.9053 48.1809L77.6952 47.0838L72.548 38.6862L70.758 39.7834Z" fill="white"/>
<path d="M12.3052 69.5974V72.1506C12.3052 74.8843 14.5215 77.1006 17.2552 77.1006C19.9889 77.1006 22.2052 74.8843 22.2052 72.1506V69.5974H12.3052Z" fill="white"/>
<path d="M12.3052 72.0232V72.1506C12.3052 74.8843 14.5215 77.1006 17.2552 77.1006C19.9889 77.1006 22.2052 74.8843 22.2052 72.1506V72.0232H12.3052Z" fill="#FFB69E"/>
<path d="M29.9365 24.1047L37.4892 43.9258L45.044 24.1047H29.9365Z" fill="white"/>
<path d="M40.7742 30.8525L39.0964 27.801L40.5424 25.171C40.8055 24.6926 40.4589 24.1055 39.9123 24.1055H35.0645C34.5184 24.1055 34.171 24.692 34.4344 25.171L35.8854 27.8098L34.2123 30.8531C33.9806 31.2747 33.9053 31.7639 33.9996 32.2356L35.0317 37.4751L37.4891 43.9265L39.9489 37.4742L40.9869 32.2362C41.0815 31.7639 41.0059 31.2741 40.7742 30.8525Z" fill="#FF3C3C"/>
<path d="M47.6843 39.3345H41.1455V41.351H47.6843V39.3345Z" fill="#252D5C"/>
<path d="M125.717 106.081C131.217 106.081 135.675 101.623 135.675 96.1226C135.675 90.6227 131.217 86.1641 125.717 86.1641C120.217 86.1641 115.758 90.6227 115.758 96.1226C115.758 101.623 120.217 106.081 125.717 106.081Z" fill="#80391B"/>
<path d="M138.573 109.256C135.646 109.256 115.703 109.256 112.777 109.256C106.539 109.256 101.381 114.332 101.35 120.57V131.713H110.96V120.618C110.965 119.652 111.811 118.866 112.777 118.866H112.872V131.713H138.323V118.866H138.573C139.539 118.866 140.385 119.652 140.39 120.618V131.713H150V120.57C149.968 114.332 144.812 109.256 138.573 109.256Z" fill="#80391B"/>
<path d="M138.573 109.256H130.696C127.629 111.688 123.602 111.594 120.805 109.256H112.778C106.539 109.256 101.382 114.332 101.351 120.57V127.564H110.961V120.619C110.966 119.652 111.811 118.866 112.778 118.866H112.872V131.713H138.323V118.866H138.574C139.54 118.866 140.385 119.652 140.39 120.619V127.564H150.001V120.57C149.969 114.332 144.812 109.256 138.573 109.256Z" fill="#55C7A6"/>
<path d="M75.046 106.081C80.546 106.081 85.0046 101.623 85.0046 96.1226C85.0046 90.6227 80.546 86.1641 75.046 86.1641C69.546 86.1641 65.0874 90.6227 65.0874 96.1226C65.0874 101.623 69.546 106.081 75.046 106.081Z" fill="#FFB69E"/>
<path d="M87.902 109.256C84.9755 109.256 65.032 109.256 62.1061 109.256C55.8677 109.256 50.7105 114.332 50.6792 120.57V131.713H60.2894V120.618C60.2941 119.652 61.1399 118.866 62.1061 118.866H62.2008V131.713H87.6521V118.866H87.9023C88.8685 118.866 89.714 119.652 89.719 120.618V131.713H99.3292V120.57C99.2979 114.332 94.1407 109.256 87.902 109.256Z" fill="#FFB69E"/>
<path d="M87.9022 109.256H79.6326C76.5652 111.688 72.5386 111.594 69.7417 109.256H62.1066C55.8682 109.256 50.711 114.332 50.6797 120.57V127.564H60.2899V120.619C60.2946 119.652 61.1404 118.866 62.1066 118.866H62.2013V131.713H87.6526V118.866H87.9028C88.869 118.866 89.7145 119.652 89.7195 120.619V127.564H99.3297V120.57C99.2981 114.332 94.1409 109.256 87.9022 109.256Z" fill="#252D5C"/>
<path d="M24.3638 105.923C29.8638 105.923 34.3224 101.464 34.3224 95.9642C34.3224 90.4642 29.8638 86.0056 24.3638 86.0056C18.8639 86.0056 14.4053 90.4642 14.4053 95.9642C14.4053 101.464 18.8639 105.923 24.3638 105.923Z" fill="#FFB69E"/>
<path d="M37.2228 109.098C34.2963 109.098 14.3528 109.098 11.4269 109.098C5.18847 109.098 0.0313476 114.173 0 120.412V131.555H9.61024V120.46C9.61492 119.494 10.4607 118.708 11.4269 118.708H11.5216V131.555H36.9726V118.707H37.2228C38.189 118.707 39.0345 119.493 39.0395 120.46V131.555H48.6497V120.411C48.6184 114.173 43.4612 109.098 37.2228 109.098Z" fill="#FFB69E"/>
<path d="M37.2228 109.098H28.9529C25.8855 111.53 21.8589 111.435 19.062 109.098H11.4269C5.18847 109.098 0.0313476 114.173 0 120.412V127.406H9.61024V120.46C9.61492 119.494 10.4607 118.708 11.4269 118.708H11.5216V131.555H36.9726V118.707H37.2228C38.189 118.707 39.0345 119.493 39.0395 120.46V127.405H48.6497V120.411C48.6184 114.173 43.4612 109.098 37.2228 109.098Z" fill="#78BEFF"/>
<path d="M103.203 123.928C108.703 123.928 113.161 119.47 113.161 113.97C113.161 108.47 108.703 104.011 103.203 104.011C97.7027 104.011 93.2441 108.47 93.2441 113.97C93.2441 119.47 97.7027 123.928 103.203 123.928Z" fill="#FFB69E"/>
<path d="M116.06 127.102C113.134 127.102 93.1902 127.102 90.2643 127.102C84.0259 127.102 78.8687 132.178 78.8374 138.416V149.559H88.4476V138.464C88.4523 137.498 89.2981 136.712 90.2643 136.712H90.359V149.559H115.81V136.712H116.06C117.027 136.712 117.872 137.498 117.877 138.464V149.559H127.487V138.416C127.455 132.177 122.299 127.102 116.06 127.102Z" fill="#FFB69E"/>
<path d="M116.06 127.102H108.184C105.116 129.534 101.09 129.439 98.2927 127.102H90.2648C84.0264 127.102 78.8692 132.177 78.8379 138.416V145.41H88.4481V138.464C88.4528 137.498 89.2986 136.712 90.2648 136.712H90.3595V149.559H115.81V136.712H116.061C117.027 136.712 117.872 137.498 117.877 138.464V145.41H127.488V138.416C127.456 132.177 122.299 127.102 116.06 127.102Z" fill="#78BEFF"/>
<path d="M52.5318 123.928C58.0318 123.928 62.4904 119.47 62.4904 113.97C62.4904 108.47 58.0318 104.011 52.5318 104.011C47.0318 104.011 42.5732 108.47 42.5732 113.97C42.5732 119.47 47.0318 123.928 52.5318 123.928Z" fill="#BA6746"/>
<path d="M65.3893 127.102C62.4628 127.102 42.5193 127.102 39.5934 127.102C33.355 127.102 28.1979 132.178 28.1665 138.416V149.559H37.7767V138.464C37.7814 137.498 38.6272 136.712 39.5934 136.712H39.6881V149.559H65.1394V136.712H65.3896C66.3558 136.712 67.2013 137.498 67.2063 138.464V149.559H76.8162V138.416C76.7846 132.177 71.628 127.102 65.3893 127.102Z" fill="#BA6746"/>
<path d="M65.3893 127.102H57.1197C54.0523 129.534 50.0257 129.439 47.2288 127.102H39.5934C33.355 127.102 28.1979 132.177 28.1665 138.416V145.41H37.7767V138.464C37.7814 137.498 38.6272 136.712 39.5934 136.712H39.6881V149.559H65.1394V136.712H65.3896C66.3558 136.712 67.2013 137.498 67.2063 138.464V145.41H76.8165V138.416C76.7846 132.177 71.6281 127.102 65.3893 127.102Z" fill="#FF3C3C"/>
</g>
<defs>
<clipPath id="clip0">
<rect width="150" height="150" fill="white"/>
</clipPath>
</defs>
</svg>
