<svg width="150" height="150" viewBox="0 0 150 150" fill="none" xmlns="http://www.w3.org/2000/svg">
<g clip-path="url(#clip0)">
<path d="M139.655 15.5171H144.828C147.681 15.5256 149.991 17.8364 150 20.6895V129.31C149.991 132.163 147.681 134.474 144.828 134.483H96.931C93.6706 134.459 90.7535 136.504 89.6638 139.577C87.5006 145.827 81.6138 150.019 75 150.019C68.3863 150.019 62.4994 145.827 60.3362 139.577C59.2465 136.504 56.3294 134.459 53.069 134.483H5.17241C2.31931 134.474 0.00852103 132.163 0 129.31V20.6895C0.00852103 17.8364 2.31931 15.5256 5.17241 15.5171H139.655Z" fill="#E04C34"/>
<path d="M139.655 113.793V121.552C139.655 122.98 138.497 124.138 137.069 124.138H75C75 118.425 79.6315 113.793 85.3448 113.793H139.655Z" fill="#AF8E3D"/>
<path d="M139.655 5.17241V113.793H85.3448C79.6315 113.793 75 118.425 75 124.138V10.3448C75 4.63154 79.6315 0 85.3448 0H134.483C137.336 0.00852103 139.647 2.31931 139.655 5.17241Z" fill="#F8E8AB"/>
<path d="M74.9999 124.138H12.9309C11.5026 124.138 10.3447 122.98 10.3447 121.552V113.793H64.6551C70.3684 113.793 74.9999 118.425 74.9999 124.138Z" fill="#E2BE50"/>
<path d="M74.9999 10.3448V124.138C74.9999 118.425 70.3684 113.793 64.6551 113.793H10.3447V5.17241C10.3532 2.31931 12.664 0.00852103 15.5171 0H64.6551C70.3684 0 74.9999 4.63154 74.9999 10.3448Z" fill="#F4EDC7"/>
<path d="M31.0345 38.7931C30.3487 38.7929 29.691 38.5204 29.2061 38.0353L18.8612 27.6905C17.8811 26.6757 17.8951 25.0627 18.8927 24.0651C19.8903 23.0675 21.5034 23.0535 22.5181 24.0336L32.863 34.3784C33.6024 35.1181 33.8235 36.2302 33.4233 37.1965C33.0231 38.1627 32.0804 38.7929 31.0345 38.7931V38.7931Z" fill="#F85360"/>
<path d="M20.6897 38.7931C19.6439 38.7929 18.7011 38.1627 18.3009 37.1965C17.9007 36.2302 18.1219 35.1181 18.8613 34.3784L29.2061 24.0336C30.2209 23.0535 31.8339 23.0675 32.8315 24.0651C33.8291 25.0627 33.8431 26.6757 32.863 27.6905L22.5182 38.0353C22.0333 38.5204 21.3756 38.7929 20.6897 38.7931V38.7931Z" fill="#F85360"/>
<path d="M46.5521 38.7933H41.3797C39.9513 38.7933 38.7935 37.6354 38.7935 36.2071C38.7935 34.7787 39.9513 33.6208 41.3797 33.6208H46.5521C47.9804 33.6208 49.1383 34.7787 49.1383 36.2071C49.1383 37.6354 47.9804 38.7933 46.5521 38.7933Z" fill="#F85360"/>
<path d="M46.5521 28.4483H41.3797C39.9513 28.4483 38.7935 27.2904 38.7935 25.8621C38.7935 24.4338 39.9513 23.2759 41.3797 23.2759H46.5521C47.9804 23.2759 49.1383 24.4338 49.1383 25.8621C49.1383 27.2904 47.9804 28.4483 46.5521 28.4483Z" fill="#F85360"/>
<path d="M62.0693 59.4827H23.2761C21.8478 59.4827 20.6899 58.3248 20.6899 56.8965C20.6899 55.4682 21.8478 54.3103 23.2761 54.3103H62.0693C63.4976 54.3103 64.6555 55.4682 64.6555 56.8965C64.6555 58.3248 63.4976 59.4827 62.0693 59.4827Z" fill="#7B669A"/>
<path d="M62.0693 90.5171H23.2761C21.8478 90.5171 20.6899 89.3593 20.6899 87.9309C20.6899 86.5026 21.8478 85.3447 23.2761 85.3447H62.0693C63.4976 85.3447 64.6555 86.5026 64.6555 87.9309C64.6555 89.3593 63.4976 90.5171 62.0693 90.5171Z" fill="#7B669A"/>
<path d="M62.069 80.1724H43.9656C42.5373 80.1724 41.3794 79.0145 41.3794 77.5862C41.3794 76.1579 42.5373 75 43.9656 75H62.069C63.4974 75 64.6553 76.1579 64.6553 77.5862C64.6553 79.0145 63.4974 80.1724 62.069 80.1724Z" fill="#7B669A"/>
<path d="M49.1382 69.8274H23.2761C21.8478 69.8274 20.6899 68.6696 20.6899 67.2412C20.6899 65.8129 21.8478 64.655 23.2761 64.655H49.1382C50.5665 64.655 51.7244 65.8129 51.7244 67.2412C51.7244 68.6696 50.5665 69.8274 49.1382 69.8274Z" fill="#7B669A"/>
<path d="M59.4828 33.6206C58.0545 33.6206 56.8966 32.4628 56.8966 31.0344V28.4482C56.8966 27.0199 58.0545 25.862 59.4828 25.862C60.7376 25.8608 61.8104 24.9591 62.0275 23.7233C62.2446 22.4874 61.5433 21.2741 60.364 20.8453C59.1848 20.4165 57.8679 20.8961 57.2406 21.9827C56.5051 23.1715 54.958 23.5607 53.7475 22.8614C52.5371 22.1622 52.1014 20.6275 52.7638 19.3965C54.4843 16.424 57.9544 14.9364 61.2936 15.7398C64.6328 16.5431 67.0465 19.4462 67.2267 22.876C67.4069 26.3057 65.3108 29.4459 62.0742 30.5948V31.0344C62.0742 31.7212 61.801 32.3798 61.3149 32.865C60.8288 33.3501 60.1696 33.622 59.4828 33.6206Z" fill="#F85360"/>
<path d="M59.4827 43.9654C60.911 43.9654 62.0689 42.8075 62.0689 41.3792C62.0689 39.9509 60.911 38.793 59.4827 38.793C58.0544 38.793 56.8965 39.9509 56.8965 41.3792C56.8965 42.8075 58.0544 43.9654 59.4827 43.9654Z" fill="#F85360"/>
<path d="M62.0689 69.8275H59.4827C58.0544 69.8275 56.8965 68.6696 56.8965 67.2412C56.8965 65.8129 58.0544 64.655 59.4827 64.655H62.0689C63.4972 64.655 64.6551 65.8129 64.6551 67.2412C64.6551 68.6696 63.4972 69.8275 62.0689 69.8275Z" fill="#7B669A"/>
<path d="M33.621 80.1724H23.2761C21.8478 80.1724 20.6899 79.0145 20.6899 77.5862C20.6899 76.1579 21.8478 75 23.2761 75H33.621C35.0493 75 36.2072 76.1579 36.2072 77.5862C36.2072 79.0145 35.0493 80.1724 33.621 80.1724Z" fill="#7B669A"/>
<path d="M46.552 100.862H23.2761C21.8478 100.862 20.6899 99.704 20.6899 98.2757C20.6899 96.8473 21.8478 95.6895 23.2761 95.6895H46.552C47.9803 95.6895 49.1382 96.8473 49.1382 98.2757C49.1382 99.704 47.9803 100.862 46.552 100.862Z" fill="#7B669A"/>
<path d="M126.725 20.6895H87.9314C86.5031 20.6895 85.3452 19.5316 85.3452 18.1033C85.3452 16.675 86.5031 15.5171 87.9314 15.5171H126.725C128.153 15.5171 129.311 16.675 129.311 18.1033C129.311 19.5316 128.153 20.6895 126.725 20.6895Z" fill="#7B669A"/>
<path d="M126.725 51.7242H87.9314C86.5031 51.7242 85.3452 50.5663 85.3452 49.138C85.3452 47.7096 86.5031 46.5518 87.9314 46.5518H126.725C128.153 46.5518 129.311 47.7096 129.311 49.138C129.311 50.5663 128.153 51.7242 126.725 51.7242Z" fill="#7B669A"/>
<path d="M126.724 41.3792H108.621C107.193 41.3792 106.035 40.2213 106.035 38.793C106.035 37.3647 107.193 36.2068 108.621 36.2068H126.724C128.153 36.2068 129.311 37.3647 129.311 38.793C129.311 40.2213 128.153 41.3792 126.724 41.3792Z" fill="#7B669A"/>
<path d="M113.793 31.0345H87.9314C86.5031 31.0345 85.3452 29.8766 85.3452 28.4483C85.3452 27.0199 86.5031 25.8621 87.9314 25.8621H113.793C115.222 25.8621 116.38 27.0199 116.38 28.4483C116.38 29.8766 115.222 31.0345 113.793 31.0345Z" fill="#7B669A"/>
<path d="M126.724 31.0345H124.138C122.71 31.0345 121.552 29.8766 121.552 28.4483C121.552 27.0199 122.71 25.8621 124.138 25.8621H126.724C128.152 25.8621 129.31 27.0199 129.31 28.4483C129.31 29.8766 128.152 31.0345 126.724 31.0345Z" fill="#7B669A"/>
<path d="M98.2763 41.3792H87.9314C86.5031 41.3792 85.3452 40.2213 85.3452 38.793C85.3452 37.3647 86.5031 36.2068 87.9314 36.2068H98.2763C99.7046 36.2068 100.862 37.3647 100.862 38.793C100.862 40.2213 99.7046 41.3792 98.2763 41.3792Z" fill="#7B669A"/>
<path d="M111.207 62.0687H87.9314C86.5031 62.0687 85.3452 60.9108 85.3452 59.4824C85.3452 58.0541 86.5031 56.8962 87.9314 56.8962H111.207C112.636 56.8962 113.793 58.0541 113.793 59.4824C113.793 60.9108 112.636 62.0687 111.207 62.0687Z" fill="#7B669A"/>
<path d="M90.5174 87.931C89.8315 87.9308 89.1738 87.6583 88.6889 87.1732L83.5165 82.0008C82.5364 80.986 82.5504 79.373 83.548 78.3754C84.5456 77.3778 86.1586 77.3638 87.1734 78.3439L92.3458 83.5163C93.0853 84.256 93.3064 85.3681 92.9062 86.3344C92.506 87.3006 91.5632 87.9307 90.5174 87.931V87.931Z" fill="#F85360"/>
<path d="M85.345 93.1034C84.2992 93.1032 83.3564 92.4731 82.9562 91.5068C82.556 90.5406 82.7771 89.4284 83.5166 88.6887L93.8614 78.3439C94.8762 77.3638 96.4892 77.3778 97.4868 78.3754C98.4844 79.373 98.4984 80.986 97.5183 82.0008L87.1735 92.3456C86.6886 92.8307 86.0309 93.1032 85.345 93.1034V93.1034Z" fill="#F85360"/>
<path d="M111.207 93.1036H106.034C104.606 93.1036 103.448 91.9457 103.448 90.5174C103.448 89.089 104.606 87.9312 106.034 87.9312H111.207C112.635 87.9312 113.793 89.089 113.793 90.5174C113.793 91.9457 112.635 93.1036 111.207 93.1036Z" fill="#F85360"/>
<path d="M111.207 82.7586H106.034C104.606 82.7586 103.448 81.6007 103.448 80.1724C103.448 78.7441 104.606 77.5862 106.034 77.5862H111.207C112.635 77.5862 113.793 78.7441 113.793 80.1724C113.793 81.6007 112.635 82.7586 111.207 82.7586Z" fill="#F85360"/>
<path d="M124.138 87.9312C122.71 87.9312 121.552 86.7733 121.552 85.345V82.7588C121.552 81.3305 122.71 80.1726 124.138 80.1726C125.393 80.1713 126.466 79.2696 126.683 78.0338C126.9 76.798 126.198 75.5846 125.019 75.1558C123.84 74.7271 122.523 75.2066 121.896 76.2933C121.449 77.1233 120.586 77.6446 119.644 77.6538C118.701 77.663 117.828 77.1587 117.365 76.3376C116.903 75.5165 116.923 74.5086 117.419 73.7071C119.14 70.7346 122.61 69.247 125.949 70.0503C129.288 70.8537 131.702 73.7568 131.882 77.1865C132.062 80.6163 129.966 83.7564 126.729 84.9053V85.345C126.729 86.0318 126.456 86.6904 125.97 87.1755C125.484 87.6607 124.825 87.9326 124.138 87.9312V87.9312Z" fill="#F85360"/>
<path d="M124.138 98.2759C125.566 98.2759 126.724 97.118 126.724 95.6897C126.724 94.2614 125.566 93.1035 124.138 93.1035C122.71 93.1035 121.552 94.2614 121.552 95.6897C121.552 97.118 122.71 98.2759 124.138 98.2759Z" fill="#F85360"/>
</g>
<defs>
<clipPath id="clip0">
<rect width="150" height="150" fill="white"/>
</clipPath>
</defs>
</svg>
