<svg width="550" height="445" viewBox="0 0 550 445" fill="none" xmlns="http://www.w3.org/2000/svg">
<g id="background-space">
<g clip-path="url(#clip0)">
<path id="Vector" d="M70.0742 127.081C97.622 127.081 119.954 104.749 119.954 77.2015C119.954 49.6537 97.622 27.3218 70.0742 27.3218C42.5264 27.3218 20.1946 49.6537 20.1946 77.2015C20.1946 104.749 42.5264 127.081 70.0742 127.081Z" fill="#B80F0A"/>
<path id="Vector_2" d="M550 119.361V250.553C550.001 275.981 544.993 301.16 535.262 324.652C525.532 348.144 511.269 369.49 493.289 387.47C475.309 405.451 453.963 419.713 430.471 429.444C406.978 439.174 381.799 444.182 356.371 444.181H0V312.989C0 242.885 37.2586 181.476 93.0605 147.496C102.676 141.635 112.789 136.631 123.281 132.54C129.455 130.128 135.752 128.041 142.145 126.286C142.269 126.245 142.4 126.209 142.525 126.179C144.414 125.662 146.314 125.175 148.227 124.718C148.334 124.688 148.435 124.665 148.542 124.641C160.329 121.832 172.354 120.136 184.458 119.574C185.889 119.509 187.321 119.456 188.764 119.426C189.281 119.408 189.803 119.396 190.332 119.396C191.425 119.373 192.524 119.361 193.629 119.361H550Z" fill="#3F3D56"/>
<path id="Vector_3" d="M256.587 359.638C115.175 359.638 0.486164 397.771 0.00537109 444.87H513.169C512.688 397.771 397.999 359.638 256.587 359.638Z" fill="#F2F2F2"/>
<g id="Group" opacity="0.1">
<path id="Vector_4" opacity="0.1" d="M209.071 424.214C235.314 424.214 256.588 418.305 256.588 411.015C256.588 403.726 235.314 397.816 209.071 397.816C182.829 397.816 161.555 403.726 161.555 411.015C161.555 418.305 182.829 424.214 209.071 424.214Z" fill="black"/>
</g>
<g id="Group_2" opacity="0.1">
<path id="Vector_5" opacity="0.1" d="M311.825 400.456C338.067 400.456 359.341 394.547 359.341 387.257C359.341 379.967 338.067 374.058 311.825 374.058C285.583 374.058 264.309 379.967 264.309 387.257C264.309 394.547 285.583 400.456 311.825 400.456Z" fill="black"/>
</g>
<g id="Group_3" opacity="0.1">
<path id="Vector_6" opacity="0.1" d="M209.071 422.894C232.689 422.894 251.836 417.576 251.836 411.015C251.836 404.455 232.689 399.136 209.071 399.136C185.453 399.136 166.307 404.455 166.307 411.015C166.307 417.576 185.453 422.894 209.071 422.894Z" fill="black"/>
</g>
<g id="Group_4" opacity="0.1">
<path id="Vector_7" opacity="0.1" d="M311.825 399.136C335.443 399.136 354.589 393.818 354.589 387.257C354.589 380.696 335.443 375.378 311.825 375.378C288.207 375.378 269.06 380.696 269.06 387.257C269.06 393.818 288.207 399.136 311.825 399.136Z" fill="black"/>
</g>
<path id="Vector_8" d="M81.9653 176.404C84.2615 176.404 86.1229 174.542 86.1229 172.246C86.1229 169.95 84.2615 168.089 81.9653 168.089C79.6691 168.089 77.8076 169.95 77.8076 172.246C77.8076 174.542 79.6691 176.404 81.9653 176.404Z" fill="#F2F2F2"/>
<path id="Vector_9" d="M439.525 339.147C441.821 339.147 443.683 337.285 443.683 334.989C443.683 332.693 441.821 330.832 439.525 330.832C437.229 330.832 435.367 332.693 435.367 334.989C435.367 337.285 437.229 339.147 439.525 339.147Z" fill="#F2F2F2"/>
<path id="Vector_10" d="M243.52 205.508C245.817 205.508 247.678 203.646 247.678 201.35C247.678 199.054 245.817 197.192 243.52 197.192C241.224 197.192 239.363 199.054 239.363 201.35C239.363 203.646 241.224 205.508 243.52 205.508Z" fill="#F2F2F2"/>
<path id="Vector_11" d="M449.622 178.78C450.934 178.78 451.998 177.716 451.998 176.404C451.998 175.092 450.934 174.028 449.622 174.028C448.31 174.028 447.246 175.092 447.246 176.404C447.246 177.716 448.31 178.78 449.622 178.78Z" fill="#FF6584"/>
<path id="Vector_12" d="M91.4688 297.57C92.781 297.57 93.8446 296.507 93.8446 295.194C93.8446 293.882 92.781 292.819 91.4688 292.819C90.1567 292.819 89.093 293.882 89.093 295.194C89.093 296.507 90.1567 297.57 91.4688 297.57Z" fill="#FF6584"/>
<path id="Vector_13" d="M55.8316 345.278H54.7494V344.195H54.538V345.278H53.4558V345.489H54.538V346.571H54.7494V345.489H55.8316V345.278Z" fill="#F2F2F2"/>
<path id="Vector_14" d="M403.294 257.373H402.212V256.29H402V257.373H400.918V257.584H402V258.666H402.212V257.584H403.294V257.373Z" fill="#F2F2F2"/>
<path id="Vector_15" d="M492.981 239.554H491.899V238.472H491.687V239.554H490.605V239.766H491.687V240.848H491.899V239.766H492.981V239.554Z" fill="#F2F2F2"/>
<path id="Vector_16" d="M299.946 287.07H298.864V285.988H298.652V287.07H297.57V287.282H298.652V288.364H298.864V287.282H299.946V287.07Z" fill="#F2F2F2"/>
<path id="Vector_17" d="M466.847 293.01H465.764V291.928H465.553V293.01H464.471V293.221H465.553V294.303H465.764V293.221H466.847V293.01Z" fill="#F2F2F2"/>
<path id="Vector_18" d="M265.497 318.55H264.415V317.468H264.203V318.55H263.121V318.761H264.203V319.843H264.415V318.761H265.497V318.55Z" fill="#F2F2F2"/>
<path id="Vector_19" d="M341.523 319.738H340.441V318.656H340.229V319.738H339.147V319.949H340.229V321.031H340.441V319.949H341.523V319.738Z" fill="#F2F2F2"/>
<path id="Vector_20" d="M57.0194 218.766H55.9372V217.684H55.7257V218.766H54.6436V218.977H55.7257V220.059H55.9372V218.977H57.0194V218.766Z" fill="#F2F2F2"/>
<path id="Vector_21" d="M403.812 137.018H402.104V171.505H403.812V137.018Z" fill="#E6E6E6"/>
<path id="Vector_22" d="M363.35 228.699L347.643 264.893L350.716 270.015L349.691 271.722L356.862 275.478V273.43L359.594 272.747L371.203 251.576L363.35 228.699Z" fill="#E6E6E6"/>
<path id="Vector_23" d="M351.057 271.381C351.057 271.381 339.447 289.478 352.423 292.21C365.398 294.941 354.813 273.088 354.813 273.088L351.057 271.381Z" fill="#E6E6E6"/>
<path id="Vector_24" d="M367.788 263.186L363.691 276.503L361.984 293.575L358.91 299.721L362.325 327.379L367.788 332.843L370.178 360.159V372.451L376.666 383.719L368.312 395.577C367.918 396.134 367.682 396.788 367.629 397.468C367.577 398.149 367.71 398.831 368.014 399.442C368.318 400.053 368.781 400.57 369.356 400.939C369.93 401.307 370.594 401.513 371.276 401.535C373.12 401.584 375.552 401.062 378.715 399.426C388.617 394.304 388.275 389.524 388.275 389.524C388.275 389.524 394.422 389.524 394.763 384.744C395.105 379.963 391.007 345.818 391.007 345.818L387.251 331.135V291.185H388.617L389.3 325.331L392.373 337.964L392.714 343.428L397.153 398.06C397.153 398.06 416.958 403.524 417.982 399.085C419.006 394.646 410.47 391.914 410.47 391.914L415.592 382.012V362.891L413.885 358.793L410.811 331.135L415.933 325.672L418.665 322.257V294.941L415.25 284.356L414.226 275.478L408.763 261.82C408.763 261.82 383.837 253.625 367.788 263.186Z" fill="white"/>
<path id="Vector_25" d="M412.177 186.017C412.177 190.124 411.202 194.173 409.333 197.83C407.463 201.487 404.752 204.648 401.423 207.053C398.094 209.458 394.242 211.039 390.182 211.665C386.123 212.291 381.974 211.945 378.074 210.655C374.175 209.365 370.638 207.167 367.753 204.244C364.869 201.32 362.719 197.754 361.482 193.837C360.244 189.921 359.954 185.767 360.635 181.717C361.315 177.666 362.948 173.836 365.397 170.539L365.404 170.532C368.659 166.154 373.211 162.912 378.414 161.269C383.617 159.626 389.205 159.665 394.384 161.38C399.563 163.094 404.07 166.398 407.265 170.821C410.459 175.244 412.178 180.561 412.177 186.017V186.017Z" fill="#1865F2"/>
<g id="Group_5" opacity="0.1">
<path id="Vector_26" opacity="0.1" d="M408.489 175.258L406.372 187.383C390.464 146.087 365.159 171.454 364.722 171.898C367.337 168.381 370.801 165.583 374.789 163.767C378.778 161.95 383.162 161.173 387.532 161.509C391.902 161.844 396.116 163.281 399.781 165.685C403.445 168.089 406.441 171.383 408.489 175.258V175.258Z" fill="black"/>
</g>
<path id="Vector_27" d="M409.172 173.892L407.055 186.017C391.146 144.722 365.841 170.088 365.404 170.532C368.02 167.015 371.483 164.218 375.472 162.401C379.461 160.584 383.845 159.807 388.215 160.143C392.585 160.478 396.799 161.915 400.463 164.319C404.128 166.724 407.124 170.017 409.172 173.892V173.892Z" fill="white"/>
<path id="Vector_28" d="M405.614 168.773L409.172 181.122C409.172 181.122 401.787 203.254 367.544 204.026L366.422 207.187L362.666 208.212L360.958 215.382L365.739 260.796C365.739 260.796 363.69 265.235 367.105 264.893C367.105 264.893 389.641 257.381 409.104 264.21C409.104 264.21 413.201 265.918 412.177 262.162C412.177 262.162 425.835 253.625 424.811 244.747C423.786 235.87 425.835 194.554 425.835 194.554C425.835 194.554 427.884 182.603 421.737 179.871C421.737 179.871 412.711 167.236 405.614 168.773Z" fill="white"/>
<path id="Vector_29" d="M398.129 255.054C398.129 255.054 376.736 257.202 382.658 269.066C388.58 280.93 399.125 259.057 399.125 259.057L398.129 255.054Z" fill="#E6E6E6"/>
<path id="Vector_30" d="M409.104 202.066C409.104 202.066 405.348 206.504 406.714 213.675C408.08 220.846 413.201 236.894 413.201 236.894L395.104 253.625L400.568 261.137L425.152 248.503L430.615 245.089C429.257 231.278 425.877 217.742 420.583 204.914L419.689 202.748C419.689 202.748 413.201 200.017 409.104 202.066Z" fill="#E6E6E6"/>
<path id="Vector_31" d="M407.396 189.944C410.885 189.944 413.713 187.116 413.713 183.627C413.713 180.138 410.885 177.31 407.396 177.31C403.908 177.31 401.08 180.138 401.08 183.627C401.08 187.116 403.908 189.944 407.396 189.944Z" fill="#E6E6E6"/>
<path id="Vector_32" d="M402.958 141.457C405.503 141.457 407.567 139.393 407.567 136.848C407.567 134.302 405.503 132.238 402.958 132.238C400.412 132.238 398.348 134.302 398.348 136.848C398.348 139.393 400.412 141.457 402.958 141.457Z" fill="#E6E6E6"/>
<path id="Vector_33" d="M285.691 209.263H284.609V208.18H284.397V209.263H283.315V209.474H284.397V210.556H284.609V209.474H285.691V209.263Z" fill="#F2F2F2"/>
<path id="Vector_34" d="M383.099 176.001H382.017V174.919H381.806V176.001H380.723V176.213H381.806V177.295H382.017V176.213H383.099V176.001Z" fill="#F2F2F2"/>
<path id="Vector_35" d="M372.408 186.098H371.326V185.016H371.114V186.098H370.032V186.31H371.114V187.392H371.326V186.31H372.408V186.098Z" fill="#F2F2F2"/>
<path id="Vector_36" d="M330.238 160.961C331.55 160.961 332.613 159.897 332.613 158.585C332.613 157.273 331.55 156.21 330.238 156.21C328.926 156.21 327.862 157.273 327.862 158.585C327.862 159.897 328.926 160.961 330.238 160.961Z" fill="#F2F2F2"/>
<g id="Group_6" opacity="0.1">
<path id="Vector_37" opacity="0.1" d="M148.543 39.6778V328.636H142.147V56.8593C144.286 50.7342 146.446 44.9858 148.543 39.6778Z" fill="black"/>
</g>
<g id="space-ship">
<path id="Vector_38" d="M153.026 284.862C115.969 305.403 113.386 300.743 110.201 294.997C108.554 292.026 107.069 289.346 111.137 284.613C112.306 283.253 113.936 281.72 116.154 279.963C121.139 276.011 129.099 270.918 141.489 264.05C146.254 261.409 151.237 259.384 156.08 257.831C158.411 257.083 160.708 256.446 162.934 255.902C165.658 255.234 168.276 254.708 170.708 254.292C172.343 254.011 173.896 253.782 175.342 253.592C182.02 252.721 186.459 252.726 186.459 252.726C186.459 252.726 173.492 273.518 153.026 284.862Z" fill="#F2F2F2"/>
<path id="Vector_39" d="M153.822 270.79C155.573 273.949 159.553 275.09 162.712 273.339C165.871 271.588 167.012 267.608 165.261 264.45C163.51 261.291 159.53 260.15 156.371 261.901C153.213 263.651 152.071 267.631 153.822 270.79Z" fill="#3F3D56"/>
<path id="Vector_40" d="M119.314 306.326C121.739 303.319 121.374 301.387 120.735 300.345L121.243 300.064L111.996 283.383L111.489 283.664C110.944 282.571 109.499 281.237 105.664 281.701C99.435 282.453 92.5464 290.633 92.5464 290.633C92.5464 290.633 103.745 282.095 107.107 287.971C106.722 288.855 106.5 289.801 106.451 290.763L103.174 292.58L108.474 302.141L111.453 300.49C112.445 301.162 113.575 301.602 114.76 301.779C117.962 307.744 104.787 312.716 104.787 312.716C104.787 312.716 115.374 311.209 119.314 306.326Z" fill="#1865F2"/>
<path id="Vector_41" d="M155.093 270.086C156.455 272.543 159.551 273.43 162.007 272.068C164.464 270.707 165.352 267.611 163.99 265.154C162.628 262.697 159.533 261.81 157.076 263.171C154.619 264.533 153.731 267.629 155.093 270.086Z" fill="#1865F2"/>
</g>
</g>
</g>
<defs>
<clipPath id="clip0">
<rect width="550" height="444.87" fill="white"/>
</clipPath>
</defs>
</svg>
