<svg width="50" height="50" viewBox="0 0 50 50" fill="none" xmlns="http://www.w3.org/2000/svg">
<path d="M28.0273 14.6484H22.168C19.7361 14.6484 17.5781 16.6112 17.5781 19.043V21.9727C17.5781 22.7929 18.2226 23.4375 19.043 23.4375H30.957C31.7774 23.4375 32.4219 22.7929 32.4219 21.9727V19.043C32.4219 16.6112 30.4592 14.6484 28.0273 14.6484Z" fill="#E50027"/>
<path d="M30.957 23.4375H25.0977V14.6484H28.0273C30.4592 14.6484 32.4219 16.6112 32.4219 19.043V21.9727C32.4219 22.7929 31.7774 23.4375 30.957 23.4375Z" fill="#C1001F"/>
<path d="M14.6484 16.1133C14.6484 18.5365 12.6771 20.5078 10.2539 20.5078H4.39453C1.97129 20.5078 0 18.5365 0 16.1133V13.1836C0 12.3739 0.655176 11.7188 1.46484 11.7188H13.1836C13.9933 11.7188 14.6484 12.3739 14.6484 13.1836V16.1133Z" fill="#E50027"/>
<path d="M50 16.1133C50 18.5365 48.0287 20.5078 45.6055 20.5078H39.7461C37.3229 20.5078 35.3516 18.5365 35.3516 16.1133V13.1836C35.3516 12.3739 36.0067 11.7188 36.8164 11.7188H48.5352C49.3448 11.7188 50 12.3739 50 13.1836V16.1133Z" fill="#C1001F"/>
<path d="M46.5139 41.0352L38.9257 22.6758C38.1346 21.328 36.7284 20.5078 35.1463 20.5078H14.8537C13.2716 20.5078 11.8653 21.328 10.9863 22.8516L3.48613 41.0352C3.13496 41.8847 2.92969 42.8809 2.92969 43.8476V45.6055C2.92969 48.037 4.89238 50 7.32422 50H42.6758C45.1076 50 47.0703 48.037 47.0703 45.6055V43.8476C47.0703 42.8809 46.865 41.8847 46.5139 41.0352Z" fill="#FD003A"/>
<path d="M46.5139 41.0352C46.865 41.8847 47.0703 42.8809 47.0703 43.8476V45.6055C47.0703 48.037 45.1076 50 42.6758 50H25.0977V20.5078H35.1463C36.7284 20.5078 38.1347 21.328 38.9257 22.6758L46.5139 41.0352Z" fill="#E50027"/>
<path d="M36.8164 0H13.1836C5.91807 0 0 5.91787 0 13.1836V14.6484H14.6484V13.1836C14.6484 12.3632 15.2929 11.7188 16.1133 11.7188H33.8867C34.7071 11.7188 35.3516 12.3632 35.3516 13.1836V14.6484H50V13.1836C50 5.91787 44.0819 0 36.8164 0Z" fill="#FD003A"/>
<path d="M50 13.1836V14.6484H35.3516V13.1836C35.3516 12.3632 34.7071 11.7188 33.8867 11.7188H25.0977V0H36.8164C44.0819 0 50 5.91787 50 13.1836Z" fill="#E50027"/>
<path d="M25.0977 26.5625C20.2636 26.5625 16.3086 30.5175 16.3086 35.3516C16.3086 40.1854 20.2636 44.1406 25.0977 44.1406C29.9317 44.1406 33.8867 40.1854 33.8867 35.3516C33.8867 30.5175 29.9317 26.5625 25.0977 26.5625Z" fill="#CAE8F9"/>
<path d="M33.8867 35.3516C33.8867 40.1854 29.9317 44.1406 25.0977 44.1406V26.5625C29.9317 26.5625 33.8867 30.5175 33.8867 35.3516Z" fill="#B7E0F6"/>
<path d="M25.0977 32.4219C23.4862 32.4219 22.168 33.7402 22.168 35.3516C22.168 36.9629 23.4862 38.2812 25.0977 38.2812C26.7091 38.2812 28.0273 36.9629 28.0273 35.3516C28.0273 33.7402 26.7091 32.4219 25.0977 32.4219Z" fill="#E50027"/>
<path d="M28.0273 35.3516C28.0273 36.9629 26.7091 38.2812 25.0977 38.2812V32.4219C26.7091 32.4219 28.0273 33.7402 28.0273 35.3516Z" fill="#C1001F"/>
</svg>
