<svg width="150" height="150" viewBox="0 0 150 150" fill="none" xmlns="http://www.w3.org/2000/svg">
<g clip-path="url(#clip0)">
<path d="M110.512 62.795H110.563C114.9 62.795 118.415 59.2773 118.415 54.9426C118.415 50.6049 114.9 47.0869 110.563 47.0869C110.506 47.0869 110.45 47.0869 110.393 47.0898H38.4876C38.4311 47.0869 38.3748 47.0869 38.3183 47.0869C33.9806 47.0869 30.4658 50.6046 30.4658 54.9426C30.4658 59.2773 33.9806 62.795 38.3183 62.795H38.3687" fill="#F1B986"/>
<path d="M108.707 26.5811C85.863 24.3665 63.0193 24.3665 40.1757 26.5811C38.4029 40.7845 37.8809 54.9876 38.6092 69.191C39.1395 79.5302 47.4129 87.76 57.7544 88.2484C68.879 88.7737 80.0033 88.7737 91.1279 88.2484C101.469 87.76 109.743 79.5305 110.273 69.191C111.001 54.9876 110.479 40.7842 108.707 26.5811V26.5811Z" fill="#F1D0A5"/>
<path d="M40.1772 26.5789C51.5971 25.4714 63.0202 24.9192 74.4432 24.9192C68.6601 24.9192 62.8769 25.4782 57.0937 26.5958C56.194 40.9361 55.9315 55.2766 56.2998 69.6136C56.5418 79.0501 59.9906 86.745 64.516 88.5001C62.2634 88.4389 60.0073 88.3537 57.755 88.2479C47.4156 87.7607 39.1413 79.5306 38.6096 69.1909C37.8839 54.9872 38.4054 40.7829 40.1772 26.5789V26.5789Z" fill="#F1B986"/>
<path d="M74.4412 76.8395C70.4479 76.8395 66.7611 74.5081 65.0486 70.8996C64.5128 69.7702 64.9938 68.4199 66.1233 67.8841C67.253 67.3482 68.6027 67.8293 69.1389 68.9587C70.1057 70.996 72.187 72.3123 74.4414 72.3123C76.6959 72.3123 78.7772 70.996 79.7443 68.9587C80.2802 67.8296 81.6302 67.3482 82.7599 67.8844C83.8893 68.4205 84.3704 69.7705 83.8343 70.8999C82.1212 74.5081 78.4344 76.8395 74.4412 76.8395Z" fill="#C32430"/>
<path d="M57.7202 61.5781C59.5259 61.5781 60.9898 59.3991 60.9898 56.7113C60.9898 54.0234 59.5259 51.8445 57.7202 51.8445C55.9145 51.8445 54.4507 54.0234 54.4507 56.7113C54.4507 59.3991 55.9145 61.5781 57.7202 61.5781Z" fill="#454045"/>
<path d="M91.1611 61.5781C92.9668 61.5781 94.4307 59.3991 94.4307 56.7113C94.4307 54.0234 92.9668 51.8445 91.1611 51.8445C89.3554 51.8445 87.8916 54.0234 87.8916 56.7113C87.8916 59.3991 89.3554 61.5781 91.1611 61.5781Z" fill="#454045"/>
<path d="M93.4682 38.3921C80.3382 43.4643 61.6872 41.2277 52.2876 31.8281C52.2876 31.8281 50.0555 47.0895 38.4911 47.0895L33.4482 48.7854C19.9796 -4.08281 48.7072 10.0433 48.7072 10.0433C51.4195 4.78711 55.3699 2.61123 59.4976 2.08623C59.8608 2.04141 60.2244 2.00771 60.59 1.98516C60.6193 1.98516 60.6483 1.98281 60.6776 1.98076C63.5851 1.82607 66.5282 2.41582 69.1438 3.25723C70.0547 3.55107 70.9271 3.87422 71.7439 4.2085C75.0305 5.55234 77.424 7.06201 77.9265 7.38516C77.9915 7.42998 78.0252 7.45254 78.0252 7.45254C80.9818 3.53994 83.8017 0 86.9018 0C88.1739 0 89.0531 0.486914 89.6432 1.26533C91.8797 4.19736 90.0425 11.2479 89.8945 11.8022L89.8878 11.8269C89.8901 11.8225 89.8922 11.8134 89.8969 11.8022L89.9127 11.7618C90.3094 10.761 94.7514 0 102.717 0C103.22 0 103.67 0.047168 104.072 0.136816C110.01 1.44902 105.362 11.8356 104.851 12.9349L104.837 12.9662C104.824 12.9932 104.815 13.0134 104.81 13.0222C105.064 12.699 115.008 0.0738284 119.428 5.86611C119.43 5.87051 119.43 5.87051 119.432 5.87285C123.89 11.7483 106.591 33.3223 93.4682 38.3921V38.3921Z" fill="#F4DD45"/>
<path d="M119.428 5.86627H119.425C117.191 3.63414 109.452 14.1711 104.804 13.0291L104.837 12.9664C104.824 12.9933 104.815 13.0135 104.81 13.0223C105.064 12.6995 115.009 0.0742773 119.428 5.86627V5.86627Z" fill="#ECC32E"/>
<path d="M104.071 0.136816C100.715 -0.625488 97.6035 5.76357 95.8454 10.299C94.9952 12.4925 92.362 13.3726 90.3625 12.1333L89.8823 11.8356L89.8867 11.8266L89.8935 11.802H89.8958L89.9116 11.7615C90.3086 10.761 94.7506 0 102.716 0C103.219 0 103.67 0.047168 104.071 0.136816Z" fill="#ECC32E"/>
<path d="M59.4967 2.08618C49.8908 3.77983 46.2612 25.8026 52.2867 31.8281C52.2867 31.8281 50.0546 47.0894 38.4902 47.0894L33.4474 48.7854C19.9784 -4.08286 48.7063 10.0432 48.7063 10.0432C51.4184 4.78706 55.369 2.61118 59.4967 2.08618V2.08618Z" fill="#ECC32E"/>
<path d="M89.6422 1.26533C86.2661 -2.11084 84.0161 15.203 76.4158 17.9757C68.8158 20.7483 68.1045 17.204 68.1045 17.204V17.2017C71.8462 15.8177 75.0046 11.4431 78.0218 7.4499C78.0242 7.45225 78.0242 7.45225 78.0242 7.45225C78.1162 7.32891 78.2082 7.20762 78.3002 7.08662C78.4144 6.93193 78.5334 6.77695 78.65 6.62461C81.3827 3.05537 84.0205 0 86.9009 0C88.173 0 89.0522 0.486914 89.6422 1.26533V1.26533Z" fill="#ECC32E"/>
<path d="M60.6837 1.98325C60.6523 1.98325 60.621 1.98325 60.5894 1.9856C60.6187 1.9856 60.6477 1.98325 60.677 1.9812L60.6837 1.98325Z" fill="#ECC32E"/>
<path d="M119.844 71.4175L80.6155 79.9192L80.6149 79.9194V79.9186H69.3846V79.9192L69.384 79.9189L30.1552 71.4172C26.1544 70.5483 22.3716 73.5992 22.3716 77.6923V124.92C22.3716 127.943 24.481 130.558 27.4341 131.197L69.384 140.289L69.3846 140.288V140.289H80.6149V140.288L80.6155 140.289L122.565 131.197C125.519 130.558 127.628 127.943 127.628 124.92V77.6926C127.628 73.5995 123.845 70.5486 119.844 71.4175V71.4175Z" fill="#DFEAEF"/>
<path d="M131.852 82.3793V133.397C131.852 136.663 129.573 139.488 126.383 140.179L81.0664 150L75.2173 146.3V88.6421L81.0664 84.7848L123.444 75.6008C127.766 74.6619 131.852 77.9578 131.852 82.3793V82.3793Z" fill="#DA4A54"/>
<path d="M75.2179 88.642V146.3L68.9339 150L23.6168 140.179C20.4267 139.488 18.1479 136.663 18.1479 133.397V82.3792C18.1479 77.9577 22.2346 74.6618 26.5565 75.6005L68.9342 84.7845L75.2179 88.642Z" fill="#C32430"/>
<path d="M68.9346 150V84.7842H81.0669V150" fill="#DD636E"/>
<path d="M96.3662 102.037C95.3238 102.037 94.386 101.312 94.1563 100.252C93.8915 99.0304 94.6673 97.8251 95.889 97.5603L120.954 92.1278C122.177 91.8629 123.381 92.6387 123.646 93.8604C123.911 95.0821 123.135 96.2873 121.913 96.5522L96.8481 101.985C96.6861 102.02 96.525 102.037 96.3662 102.037Z" fill="#454045"/>
<path d="M96.3662 110.448C95.3238 110.448 94.386 109.724 94.1563 108.664C93.8915 107.442 94.6673 106.237 95.889 105.972L120.954 100.539C122.177 100.275 123.381 101.05 123.646 102.272C123.911 103.494 123.135 104.699 121.913 104.964L96.8481 110.396C96.6861 110.431 96.525 110.448 96.3662 110.448Z" fill="#454045"/>
<path d="M16.9026 107.03H14.5293C11.0245 107.03 8.18359 104.189 8.18359 100.684V94.9883C8.18359 91.4835 11.0248 88.6426 14.5293 88.6426H16.9026C20.4074 88.6426 23.2483 91.4838 23.2483 94.9883V100.684C23.2483 104.189 20.4071 107.03 16.9026 107.03V107.03Z" fill="#F1D0A5"/>
<path d="M18.1223 106.911C17.73 106.992 17.3196 107.031 16.903 107.031H14.5276C11.0237 107.031 8.18359 104.188 8.18359 100.684V94.9888C8.18359 91.4816 11.0237 88.6416 14.5276 88.6416H16.903C17.3196 88.6416 17.73 88.6809 18.1223 88.7623C15.2038 89.3298 13.0006 91.9012 13.0006 94.9888V100.684C13.0006 103.772 15.2038 106.343 18.1223 106.911V106.911Z" fill="#F1B986"/>
<path d="M135.471 107.03H133.098C129.593 107.03 126.752 104.189 126.752 100.684V94.9883C126.752 91.4835 129.594 88.6426 133.098 88.6426H135.471C138.976 88.6426 141.817 91.4838 141.817 94.9883V100.684C141.817 104.189 138.976 107.03 135.471 107.03Z" fill="#F1D0A5"/>
<path d="M136.69 106.911C136.298 106.992 135.887 107.031 135.471 107.031H133.095C129.592 107.031 126.751 104.188 126.751 100.684V94.9888C126.751 91.4816 129.592 88.6416 133.095 88.6416H135.471C135.887 88.6416 136.298 88.6809 136.69 88.7623C133.772 89.3298 131.568 91.9012 131.568 94.9888V100.684C131.568 103.772 133.772 106.343 136.69 106.911V106.911Z" fill="#F1B986"/>
</g>
<defs>
<clipPath id="clip0">
<rect width="150" height="150" fill="white"/>
</clipPath>
</defs>
</svg>
