<svg width="150" height="150" viewBox="0 0 150 150" fill="none" xmlns="http://www.w3.org/2000/svg">
<path d="M139.424 75C139.424 77.6545 139.276 80.2751 138.985 82.8533C135.084 117.658 105.558 144.712 69.7116 144.712C45.0905 144.712 23.4542 131.95 11.0514 112.679C8.14922 108.172 5.75332 103.306 3.94072 98.1673C1.38867 90.9169 0 83.1208 0 75C0 36.4992 31.2108 5.28833 69.7116 5.28833C103.446 5.28833 131.584 29.252 138.032 61.0863C138.945 65.5819 139.424 70.2339 139.424 75Z" fill="#C69A6A"/>
<path d="M122.314 26.3982V104.877H13.7685C11.1962 104.877 8.86885 103.835 7.18721 102.151C5.50264 100.466 4.46143 98.1415 4.46143 95.5696C4.46143 93.447 7.63691 81.2715 11.3673 67.7106C16.6624 48.4526 23.0729 26.3982 23.0729 26.3982H122.314Z" fill="#F9EED7"/>
<path d="M70.2184 26.3982L65.2616 33.4461L34.4577 77.2479L22.5298 68.8596L28.2122 60.7816L34.654 51.6251L41.0932 42.4687L47.5323 33.3096L52.3921 26.3982H70.2184Z" fill="#D6C8B0"/>
<path d="M56.7357 24.1564L63.1752 14.9994L68.8576 6.92017L80.7844 15.3079L68.0279 33.4473L37.2231 77.2491L25.2964 68.8611L30.9782 60.7816L37.418 51.6246L43.8577 42.4675L50.2978 33.3108L56.1006 25.0593L56.7357 24.1564Z" fill="#FFD15C"/>
<path d="M17.0011 67.7114V104.876H13.7682C11.1968 104.876 8.87002 103.835 7.18633 102.151C5.50234 100.467 4.46143 98.1409 4.46143 95.5695C4.46143 93.4467 7.63809 81.2706 11.3664 67.7117L17.0011 67.7114Z" fill="#E8DBC4"/>
<path d="M61.8197 16.9238L66.437 20.1711L69.1432 16.3233L64.5259 13.076L61.8197 16.9238Z" fill="#EDBB4C"/>
<path d="M42.5018 44.3911L47.1191 47.6384L49.8253 43.7906L45.208 40.5433L42.5018 44.3911Z" fill="#EDBB4C"/>
<path d="M48.9442 35.2351L53.5615 38.4824L56.2677 34.6346L51.6504 31.3873L48.9442 35.2351Z" fill="#EDBB4C"/>
<path d="M55.3803 26.0813L59.9976 29.3286L62.7037 25.4808L58.0864 22.2335L55.3803 26.0813Z" fill="#EDBB4C"/>
<path d="M29.6234 62.7067L34.2407 65.9541L36.9469 62.1063L32.3296 58.8589L29.6234 62.7067Z" fill="#EDBB4C"/>
<path d="M36.0653 53.5485L40.6826 56.7959L43.3888 52.9481L38.7715 49.7007L36.0653 53.5485Z" fill="#EDBB4C"/>
<path d="M23.0723 26.398V86.2626H13.7685C8.62891 86.2626 4.46143 90.4301 4.46143 95.5697V17.091C4.46143 15.8086 4.72188 14.5826 5.19209 13.469C5.66231 12.356 6.34609 11.3523 7.18633 10.5088C8.87031 8.82485 11.1968 7.78394 13.7682 7.78394H23.072C23.0723 7.78394 23.0723 26.398 23.0723 26.398Z" fill="#D6C8B0"/>
<path d="M76.5947 48.2764V104.876H122.314V93.9959L76.5947 48.2764ZM92.58 103.989V85.6902L110.879 103.989H92.58Z" fill="#D6C8B0"/>
<path d="M150 119.975H78.3018V104.987V48.2769L135.012 104.987L150 119.975ZM94.2882 103.988H112.587L94.2882 85.6895V103.988Z" fill="#34ABE0"/>
<path d="M85.7378 29.8277H85.6279C85.6279 26.8614 86.302 23.901 87.6503 21.1729H92.8651H122.52V21.1761C121.329 23.9355 123.633 26.8799 123.633 29.8277H85.7378V29.8277Z" fill="#FF525D"/>
<path d="M123.634 29.8276C123.634 32.772 121.329 35.7166 122.521 38.4761V38.4793H92.8656H87.6508C86.3022 35.7544 85.6284 32.7881 85.6284 29.8276H85.7383C85.738 29.8276 123.634 29.8276 123.634 29.8276Z" fill="#EF4152"/>
<path d="M76.6187 29.9166V29.7379C76.6248 28.6999 76.8161 27.7059 77.1642 26.7871C77.1609 26.7871 77.1642 26.7839 77.1642 26.7839C78.3996 23.5009 81.6105 21.1738 85.3233 21.1738H88.5911C87.2426 23.902 86.5688 26.8621 86.5688 29.8284C86.5688 30.6877 86.625 31.5438 86.7413 32.3966C87.0173 34.4881 87.6352 36.545 88.5914 38.4801H85.3236C80.5729 38.4804 76.6406 34.6703 76.6187 29.9166Z" fill="#279FC9"/>
<path d="M77.164 26.7866C77.1608 26.7866 77.164 26.7834 77.164 26.7834C78.3995 23.5004 81.6104 21.1733 85.3232 21.1733H88.591C87.2425 23.9015 86.5686 26.8616 86.5686 29.8279C86.5686 30.6872 86.6249 31.5433 86.7412 32.3961H85.3238C81.6107 32.3967 78.3998 30.0696 77.164 26.7866Z" fill="#34ABE0"/>
<path d="M120.729 29.8287C120.729 26.8812 121.328 23.9368 122.52 21.177V21.1738L128.575 25.2347C127.688 26.5486 127.176 28.126 127.176 29.8284C127.176 31.5279 127.691 33.1085 128.575 34.4192L122.52 38.4798V38.4766C121.328 35.7174 120.729 32.7731 120.729 29.8287Z" fill="#E8DBC4"/>
<path d="M120.729 29.8286H135.426L128.575 34.4194L122.519 38.48V38.4768C121.328 35.7173 120.729 32.7729 120.729 29.8286Z" fill="#D6C8B0"/>
<path d="M127.177 29.8286C127.177 28.1259 127.688 26.5488 128.575 25.2349L135.427 29.8286L128.575 34.4194C127.691 33.1087 127.177 31.5281 127.177 29.8286Z" fill="#FF525D"/>
</svg>
