<svg width="150" height="150" viewBox="0 0 150 150" fill="none" xmlns="http://www.w3.org/2000/svg">
<path d="M117.188 142.969H14.0625V16.4062H135.938V124.219L117.188 142.969Z" fill="#7FCAC9"/>
<path d="M14.0625 16.4062H135.938V30.4688H14.0625V16.4062Z" fill="#195C85"/>
<path d="M121.875 4.6875H28.125C26.2602 4.6875 24.4718 5.42829 23.1532 6.74691C21.8345 8.06552 21.0938 9.85395 21.0938 11.7188V23.4375H25.7812V11.7188C25.7812 11.0971 26.0282 10.501 26.4677 10.0615C26.9073 9.62193 27.5034 9.375 28.125 9.375C28.7466 9.375 29.3427 9.62193 29.7823 10.0615C30.2218 10.501 30.4688 11.0971 30.4688 11.7188V23.4375H35.1562V11.7188C35.1533 10.9197 35.0138 10.127 34.7438 9.375H37.5C38.1216 9.375 38.7177 9.62193 39.1573 10.0615C39.5968 10.501 39.8438 11.0971 39.8438 11.7188V23.4375H44.5312V11.7188C44.5235 10.9185 44.3776 10.1256 44.1 9.375H46.875C47.4966 9.375 48.0927 9.62193 48.5323 10.0615C48.9718 10.501 49.2188 11.0971 49.2188 11.7188V23.4375H53.9062V11.7188C53.8985 10.9185 53.7526 10.1256 53.475 9.375H56.25C56.8716 9.375 57.4677 9.62193 57.9073 10.0615C58.3468 10.501 58.5938 11.0971 58.5938 11.7188V23.4375H63.2812V11.7188C63.2735 10.9185 63.1276 10.1256 62.85 9.375H65.625C66.2466 9.375 66.8427 9.62193 67.2823 10.0615C67.7218 10.501 67.9688 11.0971 67.9688 11.7188V23.4375H72.6562V11.7188C72.6485 10.9185 72.5026 10.1256 72.225 9.375H75C75.6216 9.375 76.2177 9.62193 76.6573 10.0615C77.0968 10.501 77.3438 11.0971 77.3438 11.7188V23.4375H82.0312V11.7188C82.0235 10.9185 81.8776 10.1256 81.6 9.375H84.375C84.9966 9.375 85.5927 9.62193 86.0323 10.0615C86.4718 10.501 86.7188 11.0971 86.7188 11.7188V23.4375H91.4062V11.7188C91.3985 10.9185 91.2526 10.1256 90.975 9.375H93.75C94.3716 9.375 94.9677 9.62193 95.4073 10.0615C95.8468 10.501 96.0938 11.0971 96.0938 11.7188V23.4375H100.781V11.7188C100.773 10.9185 100.628 10.1256 100.35 9.375H103.125C103.747 9.375 104.343 9.62193 104.782 10.0615C105.222 10.501 105.469 11.0971 105.469 11.7188V23.4375H110.156V11.7188C110.148 10.9185 110.003 10.1256 109.725 9.375H112.5C113.122 9.375 113.718 9.62193 114.157 10.0615C114.597 10.501 114.844 11.0971 114.844 11.7188V23.4375H119.531V11.7188C119.523 10.9185 119.378 10.1256 119.1 9.375H121.875C122.497 9.375 123.093 9.62193 123.532 10.0615C123.972 10.501 124.219 11.0971 124.219 11.7188V23.4375H128.906V11.7188C128.906 9.85395 128.165 8.06552 126.847 6.74691C125.528 5.42829 123.74 4.6875 121.875 4.6875Z" fill="#F9BB4B"/>
<path d="M117.188 142.969V124.219H135.938L117.188 142.969Z" fill="#548985"/>
<path d="M28.125 46.875C30.7138 46.875 32.8125 44.7763 32.8125 42.1875C32.8125 39.5987 30.7138 37.5 28.125 37.5C25.5362 37.5 23.4375 39.5987 23.4375 42.1875C23.4375 44.7763 25.5362 46.875 28.125 46.875Z" fill="#FCF05A"/>
<path d="M51.5625 46.875C54.1513 46.875 56.25 44.7763 56.25 42.1875C56.25 39.5987 54.1513 37.5 51.5625 37.5C48.9737 37.5 46.875 39.5987 46.875 42.1875C46.875 44.7763 48.9737 46.875 51.5625 46.875Z" fill="#FCF05A"/>
<path d="M75 46.875C77.5888 46.875 79.6875 44.7763 79.6875 42.1875C79.6875 39.5987 77.5888 37.5 75 37.5C72.4112 37.5 70.3125 39.5987 70.3125 42.1875C70.3125 44.7763 72.4112 46.875 75 46.875Z" fill="#FCF05A"/>
<path d="M98.4375 46.875C101.026 46.875 103.125 44.7763 103.125 42.1875C103.125 39.5987 101.026 37.5 98.4375 37.5C95.8487 37.5 93.75 39.5987 93.75 42.1875C93.75 44.7763 95.8487 46.875 98.4375 46.875Z" fill="#FCF05A"/>
<path d="M121.875 46.875C124.464 46.875 126.562 44.7763 126.562 42.1875C126.562 39.5987 124.464 37.5 121.875 37.5C119.286 37.5 117.188 39.5987 117.188 42.1875C117.188 44.7763 119.286 46.875 121.875 46.875Z" fill="#FCF05A"/>
<path d="M32.8125 77.3438C33.4341 77.3438 34.0302 77.0968 34.4698 76.6573C34.9093 76.2177 35.1562 75.6216 35.1562 75V67.9688H42.1875V75C42.1875 75.6216 42.4344 76.2177 42.874 76.6573C43.3135 77.0968 43.9096 77.3438 44.5312 77.3438C45.1529 77.3438 45.749 77.0968 46.1885 76.6573C46.6281 76.2177 46.875 75.6216 46.875 75V56.25C46.875 55.6284 46.6281 55.0323 46.1885 54.5927C45.749 54.1532 45.1529 53.9062 44.5312 53.9062C43.9096 53.9062 43.3135 54.1532 42.874 54.5927C42.4344 55.0323 42.1875 55.6284 42.1875 56.25V63.2812H35.1562V56.25C35.1562 55.6284 34.9093 55.0323 34.4698 54.5927C34.0302 54.1532 33.4341 53.9062 32.8125 53.9062C32.1909 53.9062 31.5948 54.1532 31.1552 54.5927C30.7157 55.0323 30.4688 55.6284 30.4688 56.25V75C30.4688 75.6216 30.7157 76.2177 31.1552 76.6573C31.5948 77.0968 32.1909 77.3438 32.8125 77.3438Z" fill="#FCF05A"/>
<path d="M67.9688 75V56.25C67.9688 55.6284 67.7218 55.0323 67.2823 54.5927C66.8427 54.1532 66.2466 53.9062 65.625 53.9062H53.9062C53.2846 53.9062 52.6885 54.1532 52.249 54.5927C51.8094 55.0323 51.5625 55.6284 51.5625 56.25V75C51.5625 75.6216 51.8094 76.2177 52.249 76.6573C52.6885 77.0968 53.2846 77.3438 53.9062 77.3438H65.625C66.2466 77.3438 66.8427 77.0968 67.2823 76.6573C67.7218 76.2177 67.9688 75.6216 67.9688 75ZM63.2812 72.6562H56.25V58.5938H63.2812V72.6562Z" fill="#FCF05A"/>
<path d="M84.375 70.3125C84.8437 70.3127 85.3018 70.1723 85.6899 69.9095C86.078 69.6467 86.3784 69.2736 86.5523 68.8383L90.6492 58.5938H91.4062V75C91.4062 75.6216 91.6532 76.2177 92.0927 76.6573C92.5323 77.0968 93.1284 77.3438 93.75 77.3438C94.3716 77.3438 94.9677 77.0968 95.4073 76.6573C95.8468 76.2177 96.0938 75.6216 96.0938 75V56.25C96.0938 55.6284 95.8468 55.0323 95.4073 54.5927C94.9677 54.1532 94.3716 53.9063 93.75 53.9063H89.0625C88.5938 53.9061 88.1357 54.0465 87.7476 54.3093C87.3595 54.572 87.0591 54.9452 86.8852 55.3805L84.375 61.6594L81.8648 55.3805C81.6909 54.9452 81.3905 54.572 81.0024 54.3093C80.6143 54.0465 80.1562 53.9061 79.6875 53.9063H75C74.3784 53.9063 73.7823 54.1532 73.3427 54.5927C72.9032 55.0323 72.6562 55.6284 72.6562 56.25V75C72.6562 75.6216 72.9032 76.2177 73.3427 76.6573C73.7823 77.0968 74.3784 77.3438 75 77.3438C75.6216 77.3438 76.2177 77.0968 76.6573 76.6573C77.0968 76.2177 77.3438 75.6216 77.3438 75V58.5938H78.1008L82.1977 68.8383C82.3716 69.2736 82.672 69.6467 83.0601 69.9095C83.4482 70.1723 83.9063 70.3127 84.375 70.3125V70.3125Z" fill="#FCF05A"/>
<path d="M72.6562 82.0312H60.9375C60.3159 82.0312 59.7198 82.2782 59.2802 82.7177C58.8407 83.1573 58.5938 83.7534 58.5938 84.375V103.125C58.5938 103.747 58.8407 104.343 59.2802 104.782C59.7198 105.222 60.3159 105.469 60.9375 105.469H72.6562C73.2779 105.469 73.874 105.222 74.3135 104.782C74.7531 104.343 75 103.747 75 103.125V84.375C75 83.7534 74.7531 83.1573 74.3135 82.7177C73.874 82.2782 73.2779 82.0312 72.6562 82.0312ZM70.3125 100.781H63.2812V86.7188H70.3125V100.781Z" fill="#FCF05A"/>
<path d="M52.1295 82.1015C51.5266 81.9513 50.8886 82.0466 50.3559 82.3666C49.8233 82.6865 49.4395 83.2049 49.2889 83.8078L46.3592 95.5265L44.3647 90.539C44.1911 90.1034 43.8908 89.7298 43.5027 89.4666C43.1145 89.2034 42.6563 89.0627 42.1873 89.0627C41.7183 89.0627 41.2601 89.2034 40.872 89.4666C40.4838 89.7298 40.1835 90.1034 40.01 90.539L38.0154 95.5265L35.0858 83.8078C34.9238 83.2174 34.5374 82.7138 34.0089 82.4046C33.4805 82.0955 32.8521 82.0054 32.2581 82.1536C31.6641 82.3018 31.1517 82.6765 30.8304 83.1976C30.5091 83.7187 30.4045 84.3449 30.5389 84.9422L35.2264 103.692C35.3459 104.172 35.6143 104.602 35.9933 104.921C36.3722 105.239 36.8421 105.429 37.3357 105.464C37.8309 105.494 38.3232 105.369 38.7435 105.105C39.1638 104.842 39.4911 104.453 39.6795 103.995L42.1873 97.7156L44.6975 103.995C44.8714 104.43 45.1718 104.803 45.5599 105.066C45.9481 105.329 46.4061 105.469 46.8748 105.469H47.0318C47.5255 105.434 47.9954 105.244 48.3743 104.925C48.7532 104.607 49.0217 104.177 49.1412 103.697L53.8287 84.9469C53.9806 84.3442 53.8869 83.7059 53.5683 83.1723C53.2496 82.6388 52.7321 82.2536 52.1295 82.1015V82.1015Z" fill="#FCF05A"/>
<path d="M114.844 67.9688C115.465 67.9688 116.061 67.7218 116.501 67.2823C116.941 66.8427 117.188 66.2466 117.188 65.625V56.25C117.188 55.6284 116.941 55.0323 116.501 54.5927C116.061 54.1532 115.465 53.9062 114.844 53.9062H103.125C102.503 53.9062 101.907 54.1532 101.468 54.5927C101.028 55.0323 100.781 55.6284 100.781 56.25V75C100.781 75.6216 101.028 76.2177 101.468 76.6573C101.907 77.0968 102.503 77.3438 103.125 77.3438H114.844C115.465 77.3438 116.061 77.0968 116.501 76.6573C116.941 76.2177 117.188 75.6216 117.188 75C117.188 74.3784 116.941 73.7823 116.501 73.3427C116.061 72.9032 115.465 72.6562 114.844 72.6562H105.469V67.9688H114.844ZM105.469 58.5938H112.5V63.2812H105.469V58.5938Z" fill="#FCF05A"/>
<path d="M96.0938 100.781H92.5781L89.0625 96.0938H93.75C94.3716 96.0938 94.9677 95.8468 95.4073 95.4073C95.8468 94.9677 96.0938 94.3716 96.0938 93.75V84.375C96.0938 83.7534 95.8468 83.1573 95.4073 82.7177C94.9677 82.2782 94.3716 82.0312 93.75 82.0312H82.0312C81.4096 82.0312 80.8135 82.2782 80.374 82.7177C79.9344 83.1573 79.6875 83.7534 79.6875 84.375V103.125C79.6875 103.747 79.9344 104.343 80.374 104.782C80.8135 105.222 81.4096 105.469 82.0312 105.469C82.6529 105.469 83.249 105.222 83.6885 104.782C84.1281 104.343 84.375 103.747 84.375 103.125V97.657L89.5313 104.531C89.7496 104.822 90.0327 105.059 90.3581 105.221C90.6835 105.384 91.0424 105.469 91.4062 105.469H96.0938C96.7154 105.469 97.3115 105.222 97.751 104.782C98.1906 104.343 98.4375 103.747 98.4375 103.125C98.4375 102.503 98.1906 101.907 97.751 101.468C97.3115 101.028 96.7154 100.781 96.0938 100.781ZM84.375 86.7188H91.4062V91.4062H84.375V86.7188Z" fill="#FCF05A"/>
<path d="M116.674 82.9101C116.482 82.6697 116.244 82.4695 115.974 82.321C115.705 82.1724 115.408 82.0785 115.102 82.0446C114.796 82.0106 114.487 82.0373 114.191 82.1231C113.895 82.2089 113.619 82.3521 113.379 82.5445L105.469 88.8726V84.375C105.469 83.7534 105.222 83.1572 104.782 82.7177C104.343 82.2782 103.747 82.0312 103.125 82.0312C102.503 82.0312 101.907 82.2782 101.468 82.7177C101.028 83.1572 100.781 83.7534 100.781 84.375V103.125C100.781 103.747 101.028 104.343 101.468 104.782C101.907 105.222 102.503 105.469 103.125 105.469C103.747 105.469 104.343 105.222 104.782 104.782C105.222 104.343 105.469 103.747 105.469 103.125V98.6273L113.379 104.955C113.619 105.148 113.895 105.291 114.191 105.377C114.487 105.462 114.796 105.489 115.102 105.455C115.408 105.421 115.705 105.327 115.974 105.179C116.244 105.03 116.482 104.83 116.674 104.59C116.867 104.349 117.01 104.074 117.095 103.778C117.181 103.482 117.208 103.172 117.174 102.866C117.14 102.56 117.046 102.264 116.898 101.994C116.749 101.725 116.549 101.487 116.309 101.295L106.875 93.75L116.306 86.2055C116.547 86.0133 116.747 85.7756 116.896 85.506C117.045 85.2364 117.139 84.9401 117.173 84.6341C117.207 84.328 117.181 84.0183 117.095 83.7225C117.01 83.4267 116.867 83.1506 116.674 82.9101V82.9101Z" fill="#FCF05A"/>
<path d="M28.1249 124.219C27.5437 124.219 26.983 124.004 26.5516 123.614C26.1203 123.225 25.8491 122.689 25.7907 122.111C25.7323 121.532 25.8908 120.953 26.2355 120.485C26.5803 120.017 27.0866 119.694 27.6562 119.578C58.7367 113.759 90.2576 110.607 121.875 110.156C122.497 110.156 123.093 110.403 123.532 110.843C123.972 111.282 124.219 111.878 124.219 112.5C124.219 113.122 123.972 113.718 123.532 114.157C123.093 114.597 122.497 114.844 121.875 114.844C90.5724 115.294 59.3654 118.415 28.5937 124.172C28.4395 124.204 28.2824 124.22 28.1249 124.219V124.219Z" fill="#DD3E46"/>
</svg>
