<svg width="50" height="50" viewBox="0 0 50 50" fill="none" xmlns="http://www.w3.org/2000/svg">
<g clip-path="url(#clip0)">
<path d="M49.4225 18.9655L49.638 18.6896L50.0001 18.9655V48.2759C49.9973 49.2269 49.227 49.9972 48.276 50H1.72412C0.773145 49.9972 0.00283203 49.2268 0 48.2759V18.9655L0.362109 18.6896L0.577637 18.9655H49.4225Z" fill="#FF5364"/>
<path d="M49.6377 18.6894L49.4222 18.9653L25.8619 37.0687H24.1378L0.577344 18.9653L0.361816 18.6894L8.62041 12.267L19.9825 3.44802L23.9566 0.361792C24.5683 -0.120923 25.4312 -0.120923 26.0429 0.361792L30.017 3.44802L41.3791 12.267L49.6377 18.6894Z" fill="#802D40"/>
<path d="M41.3792 5.17236V25.1465L25.862 37.0689H24.1379L8.62061 25.1466V5.17236C8.62344 4.22129 9.39375 3.45107 10.3447 3.44824H39.6551C40.6061 3.45107 41.3764 4.22139 41.3792 5.17236Z" fill="#F0C419"/>
<path d="M49.664 49.293C49.3422 49.7385 48.8255 50.0015 48.2761 50H1.72432C1.1748 50.0016 0.658203 49.7385 0.336426 49.293L20.0864 33.9568L23.9571 30.9482C24.5688 30.4655 25.4317 30.4655 26.0434 30.9482L29.9141 33.9568L49.664 49.293Z" fill="#DF4D60"/>
<path d="M25.0001 6.03442C19.2868 6.03442 14.6553 10.666 14.6553 16.3792C14.6553 22.0925 19.2868 26.7241 25.0001 26.7241C25.4762 26.7241 25.8622 26.3381 25.8622 25.862C25.8622 25.3858 25.4762 25 25.0001 25C20.2391 25 16.3794 21.1404 16.3794 16.3792C16.3794 11.6181 20.2391 7.75854 25.0001 7.75854C29.7611 7.75854 33.6208 11.6181 33.6208 16.3792V19.8275C33.6208 20.7797 32.8488 21.5516 31.8967 21.5516C30.9445 21.5516 30.1726 20.7797 30.1726 19.8275V16.3792C30.1726 15.9032 29.7866 15.5171 29.3105 15.5171C28.8343 15.5171 28.4483 15.9031 28.4483 16.3792C28.4483 18.2836 26.9045 19.8275 25.0001 19.8275C23.0957 19.8275 21.5519 18.2836 21.5519 16.3792C21.5519 14.4749 23.0957 12.931 25.0001 12.931C25.4762 12.931 25.8622 12.5451 25.8622 12.0689C25.8622 11.5927 25.4763 11.2068 25.0001 11.2068C22.6852 11.2016 20.6486 12.7353 20.0142 14.9616C19.3797 17.1879 20.3019 19.5647 22.2718 20.7806C24.2417 21.9965 26.7797 21.7554 28.4855 20.1904C28.6732 22.0134 30.2577 23.369 32.0879 23.2721C33.9181 23.1752 35.3507 21.6601 35.345 19.8274V16.3792C35.3388 10.6685 30.7109 6.04058 25.0001 6.03442Z" fill="#DF4D60"/>
</g>
<defs>
<clipPath id="clip0">
<rect width="50" height="50" fill="white"/>
</clipPath>
</defs>
</svg>
