<svg width="50" height="50" viewBox="0 0 50 50" fill="none" xmlns="http://www.w3.org/2000/svg">
<g clip-path="url(#clip0)">
<path d="M49.9882 46.4537L46.0601 24.812C46.0209 24.596 45.8869 24.4089 45.6949 24.3021L35.808 18.8031C35.6797 18.7316 35.5358 18.7032 35.3945 18.7141L37.1933 41.9181L37.133 41.945L48.9654 47.2533C49.0617 47.2964 49.1641 47.3177 49.2659 47.3177C49.4272 47.3177 49.5869 47.2647 49.7183 47.1618C49.9329 46.9943 50.0367 46.7216 49.9882 46.4537Z" fill="#44C868"/>
<path d="M24.9998 24.0601L14.888 18.7934C14.7668 18.7302 14.6324 18.7044 14.5001 18.7133C14.5352 18.7112 14.5704 18.7114 14.6054 18.7141L12.8066 41.918L24.6993 47.2534C24.7953 47.2964 24.8978 47.3178 24.9998 47.3178V24.0601V24.0601Z" fill="#44C868"/>
<path d="M14.6055 18.7142C14.4642 18.7032 14.3203 18.7317 14.192 18.8031L4.30498 24.3021C4.11298 24.4088 3.979 24.5958 3.93984 24.812L0.0118045 46.4537C-0.0368284 46.7215 0.067078 46.9941 0.281629 47.1619C0.413172 47.2647 0.572841 47.3178 0.733974 47.3178C0.835829 47.3178 0.938271 47.2966 1.03446 47.2534L12.8025 41.974L14.6055 18.7142Z" fill="#4CE166"/>
<path d="M35.3945 18.7137C35.2972 18.7212 35.201 18.7471 35.1118 18.7936L25 24.0602V47.3178C25 47.3178 25 47.3178 25.0001 47.3178C25.1021 47.3178 25.2047 47.2966 25.3006 47.2535L37.1933 41.9181L35.3945 18.7137Z" fill="#4CE166"/>
<path d="M2.74961 31.3705L1.95166 35.7669L13.7675 29.526L14.0418 25.9871L14.0873 25.4001L2.74961 31.3705Z" fill="#FFDB56"/>
<path d="M13.8736 28.1537L13.7673 29.526L1.95146 35.7668L0.0118045 46.4537C-0.0368284 46.7215 0.067078 46.9941 0.281629 47.1619C0.413172 47.2647 0.572841 47.3177 0.733974 47.3177C0.835829 47.3177 0.938271 47.2966 1.03446 47.2534L12.8025 41.974L13.8736 28.1537Z" fill="#A8EEFC"/>
<path d="M25.0028 26.961L14.0869 25.4001L13.7671 29.526L24.9998 46.5846V40.3816L18.297 29.8271L25.0028 30.6292V26.961Z" fill="#FFBB24"/>
<path d="M44.9167 23.8693L40.1672 21.2276L35.6709 22.2782L35.7271 23.0044L35.9492 25.869L44.9167 23.8693Z" fill="#FFBB24"/>
<path d="M36.3479 31.0134L35.9221 25.5203L35.6708 22.2782L25.0029 26.961V30.6292L31.9713 27.5989L36.3479 31.0134Z" fill="#FFDB56"/>
<path d="M49.9883 46.4537L49.0017 41.0176L35.9492 25.869L36.348 31.0134L49.7338 47.1483C49.9373 46.9796 50.0357 46.7148 49.9883 46.4537Z" fill="#FFBB24"/>
<path d="M25.0474 2.68213C19.3869 2.68213 14.7817 7.2835 14.7817 12.9394C14.7817 16.438 16.4428 20.1943 19.7189 24.1037C22.125 26.975 24.4985 28.8218 24.5984 28.8991C24.7306 29.0013 24.889 29.0524 25.0475 29.0524C25.2059 29.0524 25.3644 29.0013 25.4966 28.8991C25.5964 28.8218 27.9699 26.975 30.3761 24.1037C33.6522 20.1943 35.3132 16.4381 35.3132 12.9394C35.313 7.2835 30.7078 2.68213 25.0474 2.68213ZM28.8492 12.9393C28.8492 15.0371 27.147 16.7379 25.0474 16.7379C22.9478 16.7379 21.2456 15.0372 21.2456 12.9393C21.2456 10.8413 22.9478 9.14064 25.0474 9.14064C27.147 9.14064 28.8492 10.8414 28.8492 12.9393Z" fill="#FF4A4A"/>
<path d="M25.0473 2.68213C24.5986 2.68213 24.1567 2.71123 23.7231 2.76729C28.7606 3.41836 32.6648 7.73175 32.6648 12.9394C32.6648 16.438 31.0037 20.1943 27.7276 24.1037C26.1803 25.9501 24.6476 27.3719 23.7232 28.1729C24.2363 28.6174 24.5627 28.8715 24.5982 28.8991C24.7305 29.0013 24.8889 29.0524 25.0474 29.0524C25.2058 29.0524 25.3643 29.0013 25.4965 28.8991C25.5963 28.8218 27.9698 26.975 30.376 24.1037C33.6521 20.1943 35.3131 16.4381 35.3131 12.9394C35.3129 7.2835 30.7077 2.68213 25.0473 2.68213Z" fill="#E7343F"/>
<path d="M25.3006 47.2534L29.723 45.2695L25 40.3817V47.3178C25 47.3178 25 47.3178 25.0001 47.3178C25.1021 47.3178 25.2046 47.2966 25.3006 47.2534Z" fill="#FFDB56"/>
<path d="M46.0602 24.812C46.021 24.596 45.887 24.4089 45.695 24.3021L44.9167 23.8692L35.9492 25.8689L49.0016 41.0175L46.0602 24.812Z" fill="#1EA4E9"/>
<path d="M24.9999 47.3178C25 47.3178 25 47.3178 24.9999 47.3178V46.5846L13.7673 29.5261L12.8066 41.9182L24.6993 47.2535C24.7953 47.2966 24.8978 47.3178 24.9999 47.3178Z" fill="#1EA4E9"/>
</g>
<defs>
<clipPath id="clip0">
<rect width="50" height="50" fill="white"/>
</clipPath>
</defs>
</svg>
