<svg width="150" height="150" viewBox="0 0 150 150" fill="none" xmlns="http://www.w3.org/2000/svg">
<path d="M107.812 121.875V101.953C107.812 101.021 107.442 100.127 106.783 99.4672C106.123 98.8079 105.229 98.4375 104.297 98.4375C103.364 98.4375 102.47 98.8079 101.811 99.4672C101.152 100.127 100.781 101.021 100.781 101.953V145.312H120.313V140.625C121.556 140.625 122.748 140.131 123.627 139.252C124.506 138.373 125 137.181 125 135.938V121.875H107.812Z" fill="#F0915A"/>
<path d="M60.9375 4.6875C52.2351 4.6875 43.8891 8.14452 37.7356 14.2981C31.582 20.4516 28.125 28.7976 28.125 37.5V93.75H60.9375V84.375H79.6875C83.4171 84.375 86.994 82.8934 89.6312 80.2562C92.2684 77.619 93.75 74.0421 93.75 70.3125V37.5C93.75 28.7976 90.293 20.4516 84.1394 14.2981C77.9859 8.14452 69.6399 4.6875 60.9375 4.6875V4.6875Z" fill="#FAB991"/>
<path d="M28.125 93.75H79.6875C83.4171 93.75 86.994 95.2316 89.6312 97.8688C92.2684 100.506 93.75 104.083 93.75 107.812V145.312H14.0625V107.812C14.0625 104.083 15.5441 100.506 18.1813 97.8688C20.8185 95.2316 24.3954 93.75 28.125 93.75V93.75Z" fill="#353744"/>
<path d="M60.9375 93.75V84.375H37.5C35.0136 84.375 32.629 85.3627 30.8709 87.1209C29.1127 88.879 28.125 91.2636 28.125 93.75H46.875C50.6046 93.75 54.1815 95.2316 56.8187 97.8688C59.4559 100.506 60.9375 104.083 60.9375 107.812V114.844C60.9375 116.709 61.6783 118.497 62.9969 119.816C64.3155 121.134 66.1039 121.875 67.9688 121.875C69.8336 121.875 71.622 121.134 72.9406 119.816C74.2592 118.497 75 116.709 75 114.844V107.812C75 104.083 73.5184 100.506 70.8812 97.8688C68.244 95.2316 64.6671 93.75 60.9375 93.75Z" fill="#F0915A"/>
<path d="M28.125 93.75C31.8546 93.75 35.4315 95.2316 38.0687 97.8688C40.7059 100.506 42.1875 104.083 42.1875 107.812V145.312H14.0625V107.812C14.0625 104.083 15.5441 100.506 18.1813 97.8688C20.8185 95.2316 24.3954 93.75 28.125 93.75V93.75Z" fill="#55525B"/>
<path d="M70.3125 4.6875H56.25C47.5476 4.6875 39.2016 8.14452 33.0481 14.2981C26.8945 20.4516 23.4375 28.7976 23.4375 37.5V75C20.9511 75 18.5665 75.9877 16.8084 77.7459C15.0502 79.504 14.0625 81.8886 14.0625 84.375C14.0625 86.8614 15.0502 89.246 16.8084 91.0041C18.5665 92.7623 20.9511 93.75 23.4375 93.75H42.1875C44.6739 93.75 47.0585 92.7623 48.8166 91.0041C50.5748 89.246 51.5625 86.8614 51.5625 84.375V46.875C54.0489 46.875 56.4335 45.8873 58.1916 44.1291C59.9498 42.371 60.9375 39.9864 60.9375 37.5H93.75C94.9932 37.5 96.1855 37.0061 97.0646 36.1271C97.9436 35.248 98.4375 34.0557 98.4375 32.8125C98.4375 25.3533 95.4743 18.1996 90.1999 12.9251C84.9254 7.65066 77.7717 4.6875 70.3125 4.6875V4.6875Z" fill="#F04B37"/>
<path d="M114.844 119.141C114.844 117.199 113.27 115.625 111.328 115.625C109.386 115.625 107.812 117.199 107.812 119.141V124.609C107.812 126.551 109.386 128.125 111.328 128.125C113.27 128.125 114.844 126.551 114.844 124.609V119.141Z" fill="#FAB991"/>
<path d="M121.875 119.141C121.875 117.199 120.301 115.625 118.359 115.625C116.418 115.625 114.844 117.199 114.844 119.141V124.609C114.844 126.551 116.418 128.125 118.359 128.125C120.301 128.125 121.875 126.551 121.875 124.609V119.141Z" fill="#FAB991"/>
<path d="M128.906 121.484C128.906 119.543 127.332 117.969 125.391 117.969C123.449 117.969 121.875 119.543 121.875 121.484V124.609C121.875 126.551 123.449 128.125 125.391 128.125C127.332 128.125 128.906 126.551 128.906 124.609V121.484Z" fill="#FAB991"/>
<path d="M100.781 117.188C102.024 117.188 103.217 117.681 104.096 118.56C104.975 119.44 105.469 120.632 105.469 121.875V133.594H107.812C109.677 133.594 111.466 134.335 112.784 135.653C114.103 136.972 114.844 138.76 114.844 140.625H100.781C100.16 140.625 99.5635 140.378 99.124 139.939C98.6844 139.499 98.4375 138.903 98.4375 138.281V119.531C98.4375 118.91 98.6844 118.314 99.124 117.874C99.5635 117.434 100.16 117.188 100.781 117.188Z" fill="#FAB991"/>
<path d="M135.938 70.3126C135.938 67.989 135.363 65.7015 134.264 63.6544C133.165 61.6074 131.575 59.8647 129.638 58.582C127.7 57.2994 125.475 56.5168 123.161 56.3043C120.847 56.0918 118.517 56.4559 116.378 57.3641C114.24 58.2724 112.359 59.6964 110.905 61.5089C109.452 63.3214 108.469 65.466 108.047 67.7508C107.624 70.0356 107.775 72.3896 108.484 74.6021C109.194 76.8147 110.441 78.817 112.113 80.43C112.968 81.2405 113.65 82.2153 114.12 83.2959C114.589 84.3766 114.835 85.5408 114.844 86.7188H128.906V86.7171C128.905 85.5541 129.141 84.403 129.598 83.3337C130.056 82.2644 130.726 81.2993 131.567 80.4968C132.95 79.1856 134.051 77.6061 134.802 75.8551C135.553 74.104 135.94 72.2181 135.938 70.3126V70.3126Z" fill="#FABE19"/>
<path d="M117.188 70.3125C119.776 70.3125 121.875 68.2138 121.875 65.625C121.875 63.0362 119.776 60.9375 117.188 60.9375C114.599 60.9375 112.5 63.0362 112.5 65.625C112.5 68.2138 114.599 70.3125 117.188 70.3125Z" fill="#FFDC37"/>
<path d="M71.0939 50.0002C72.8198 50.0002 74.2189 48.601 74.2189 46.8751C74.2189 45.1492 72.8198 43.75 71.0939 43.75C69.3679 43.75 67.9688 45.1492 67.9688 46.8751C67.9688 48.601 69.3679 50.0002 71.0939 50.0002Z" fill="#353744"/>
<path d="M85.1563 50.0002C86.8823 50.0002 88.2814 48.601 88.2814 46.8751C88.2814 45.1492 86.8823 43.75 85.1563 43.75C83.4304 43.75 82.0312 45.1492 82.0312 46.8751C82.0312 48.601 83.4304 50.0002 85.1563 50.0002Z" fill="#353744"/>
<path d="M85.9374 55.8596C84.1604 55.8596 82.4233 55.3326 80.9459 54.3454C79.4684 53.3582 78.3168 51.955 77.6368 50.3133C76.9568 48.6716 76.7788 46.8651 77.1255 45.1223C77.4722 43.3795 78.3279 41.7786 79.5844 40.5221C80.8409 39.2656 82.4418 38.4099 84.1846 38.0633C85.9274 37.7166 87.7339 37.8945 89.3756 38.5745C91.0173 39.2545 92.4204 40.4061 93.4077 41.8836C94.3949 43.3611 94.9218 45.0981 94.9218 46.8751C94.9193 49.2571 93.9719 51.5409 92.2875 53.2253C90.6032 54.9096 88.3194 55.857 85.9374 55.8596V55.8596ZM85.9374 40.2344C84.624 40.2344 83.34 40.6239 82.248 41.3535C81.1559 42.0832 80.3048 43.1204 79.8021 44.3338C79.2995 45.5472 79.168 46.8825 79.4242 48.1706C79.6805 49.4588 80.3129 50.6421 81.2417 51.5708C82.1704 52.4995 83.3536 53.132 84.6418 53.3882C85.93 53.6445 87.2652 53.513 88.4787 53.0103C89.6921 52.5077 90.7292 51.6566 91.4589 50.5645C92.1886 49.4724 92.5781 48.1885 92.5781 46.8751C92.5761 45.1145 91.8759 43.4265 90.6309 42.1815C89.386 40.9366 87.698 40.2363 85.9374 40.2344V40.2344Z" fill="#6478B9"/>
<path d="M78.125 50.7812C80.6114 50.7812 82.996 51.769 84.7541 53.5271C86.5123 55.2853 87.5 57.6698 87.5 60.1563V60.9376C87.5 62.1808 87.0061 63.3731 86.1271 64.2522C85.248 65.1312 84.0557 65.6251 82.8125 65.6251C81.5693 65.6251 80.377 65.1312 79.4979 64.2522C78.6189 63.3731 78.125 62.1808 78.125 60.9376V50.7812Z" fill="#F0915A"/>
<path d="M70.3126 55.8596C68.5356 55.8596 66.7986 55.3326 65.3211 54.3454C63.8436 53.3582 62.692 51.955 62.012 50.3133C61.332 48.6716 61.1541 46.8651 61.5008 45.1223C61.8474 43.3795 62.7031 41.7786 63.9596 40.5221C65.2161 39.2656 66.817 38.4099 68.5598 38.0633C70.3026 37.7166 72.1091 37.8945 73.7508 38.5745C75.3925 39.2545 76.7957 40.4061 77.7829 41.8836C78.7701 43.3611 79.2971 45.0981 79.2971 46.8751C79.2945 49.2571 78.3471 51.5409 76.6628 53.2253C74.9784 54.9096 72.6946 55.857 70.3126 55.8596V55.8596ZM70.3126 40.2344C68.9992 40.2344 67.7153 40.6239 66.6232 41.3535C65.5312 42.0832 64.68 43.1204 64.1774 44.3338C63.6748 45.5472 63.5432 46.8825 63.7995 48.1706C64.0557 49.4588 64.6882 50.6421 65.6169 51.5708C66.5456 52.4995 67.7289 53.132 69.0171 53.3882C70.3052 53.6445 71.6405 53.513 72.8539 53.0103C74.0673 52.5077 75.1045 51.6566 75.8342 50.5645C76.5639 49.4724 76.9533 48.1885 76.9533 46.8751C76.9514 45.1145 76.2511 43.4265 75.0062 42.1815C73.7612 40.9366 72.0732 40.2363 70.3126 40.2344V40.2344Z" fill="#6478B9"/>
<path d="M51.5625 44.5312C49.6977 44.5313 47.9093 45.272 46.5907 46.5907C45.272 47.9093 44.5313 49.6977 44.5312 51.5625H46.875C46.875 50.3193 47.3689 49.127 48.2479 48.2479C49.127 47.3689 50.3193 46.875 51.5625 46.875H62.4999V44.5312H51.5625Z" fill="#6478B9"/>
<path d="M51.5625 46.875V70.3125C48.4545 70.3125 45.4738 69.0778 43.2761 66.8802C41.0784 64.6825 39.8438 61.7018 39.8438 58.5938C39.8438 55.4857 41.0784 52.505 43.2761 50.3073C45.4738 48.1097 48.4545 46.875 51.5625 46.875V46.875Z" fill="#F0915A"/>
</svg>
