<svg width="150" height="150" viewBox="0 0 150 150" fill="none" xmlns="http://www.w3.org/2000/svg">
<path d="M149.655 0.183105H0V149.838H149.655V0.183105Z" fill="white"/>
<path fill-rule="evenodd" clip-rule="evenodd" d="M6.5918 62.3231C6.5918 56.7321 11.1212 52.2034 16.7122 52.2034C22.303 52.2034 26.8124 56.7321 26.8124 62.3231C26.8124 67.9146 22.303 72.4433 16.7122 72.4433C11.1212 72.4433 6.5918 67.9146 6.5918 62.3231V62.3231Z" fill="#1865F2"/>
<path fill-rule="evenodd" clip-rule="evenodd" d="M30.8357 62.3231C30.8357 56.7321 35.3644 52.2034 40.9552 52.2034C46.5469 52.2034 51.0756 56.7321 51.0756 62.3231C51.0756 67.9146 46.5469 72.4433 40.9552 72.4433C35.3644 72.4433 30.8357 67.9146 30.8357 62.3231V62.3231Z" fill="#1865F2"/>
<path fill-rule="evenodd" clip-rule="evenodd" d="M6.5918 87.7002C6.5918 82.1087 11.1212 77.6001 16.7122 77.6001C22.303 77.6001 26.8124 82.1087 26.8124 87.7002C26.8124 93.291 22.303 97.8197 16.7122 97.8197C11.1212 97.8197 6.5918 93.291 6.5918 87.7002V87.7002Z" fill="#1865F2"/>
<path fill-rule="evenodd" clip-rule="evenodd" d="M30.8357 87.7002C30.8357 82.1087 35.3644 77.6001 40.9552 77.6001C46.5469 77.6001 51.0756 82.1087 51.0756 87.7002C51.0756 93.291 46.5469 97.8197 40.9552 97.8197C35.3644 97.8197 30.8357 93.291 30.8357 87.7002Z" fill="#1865F2"/>
<path fill-rule="evenodd" clip-rule="evenodd" d="M59.0332 84.9135L60.1357 78.8218C60.1357 78.8218 71.8989 83.1899 74.7243 80.7854C74.7243 80.7854 76.5884 78.481 71.6785 78.2807C71.6785 78.2807 58.9331 75.6549 60.7769 70.0042C60.7769 70.0042 61.1172 63.1108 78.111 64.9741C78.111 64.9741 82.3399 65.415 84.3035 66.7178L83.5417 71.627C83.5417 71.627 77.8903 68.12 71.7785 69.3226C71.7785 69.3226 69.5945 69.443 70.1552 71.5074C70.1552 71.5074 71.4782 72.8095 74.6241 72.9297C74.6241 72.9297 86.0666 74.0323 85.4058 80.4647C85.4058 80.4647 86.1668 88.7209 69.4944 86.6572L59.0332 84.9135V84.9135Z" fill="#231F20"/>
<path fill-rule="evenodd" clip-rule="evenodd" d="M86.0603 86.225L97.0627 65.4236H109.247L119.827 85.9043H109.046C109.046 85.9043 105.88 79.5914 102.613 79.051L105.98 78.3895L103.275 71.0953L96.9423 86.3453L86.0603 86.225V86.225Z" fill="#231F20"/>
<path fill-rule="evenodd" clip-rule="evenodd" d="M116.895 72.6087V65.094H143.046V72.2677H134.77V86.3362H125.071V72.6087H116.895Z" fill="#231F20"/>
</svg>
