<svg width="100" height="100" viewBox="0 0 100 100" fill="none" xmlns="http://www.w3.org/2000/svg">
<path d="M24.9999 23.4375C28.5434 23.4353 32.0256 24.3607 35.1006 26.1216C38.1755 27.8825 40.7359 30.4176 42.5273 33.4748C44.3187 36.5321 45.2786 40.005 45.3116 43.5483C45.3446 47.0916 44.4496 50.5818 42.7156 53.6719L45.3124 64.0625L37.1656 59.9891C34.591 61.918 31.5949 63.2076 28.4243 63.7515C25.2536 64.2954 21.999 64.078 18.9288 63.1174C15.8586 62.1568 13.0606 60.4803 10.7654 58.2262C8.47014 55.972 6.74342 53.2048 5.72749 50.1524C4.71155 47.1 4.43548 43.8499 4.92203 40.6699C5.40858 37.4899 6.64382 34.4711 8.52595 31.8621C10.4081 29.2531 12.8832 27.1288 15.7475 25.6641C18.6117 24.1993 21.7829 23.4362 24.9999 23.4375V23.4375Z" fill="#F89C8D"/>
<path d="M44.0906 50.6531C40.472 52.6348 36.3352 53.4661 32.232 53.0359C28.1288 52.6058 24.2543 50.9346 21.1255 48.2455C17.9966 45.5563 15.7622 41.977 14.7202 37.9851C13.6782 33.9931 13.8783 29.7784 15.2937 25.9031C12.8258 27.2275 10.6584 29.0481 8.9278 31.2503C7.19719 33.4526 5.94073 35.9889 5.23735 38.7C4.53398 41.4112 4.3989 44.2385 4.84059 47.0043C5.28228 49.7701 6.2912 52.4147 7.80396 54.7719C9.31673 57.1291 11.3006 59.148 13.6311 60.7017C15.9615 62.2554 18.588 63.3104 21.3457 63.8004C24.1034 64.2903 26.9326 64.2046 29.6556 63.5487C32.3786 62.8928 34.9365 61.6809 37.1687 59.989L45.3124 64.0625L42.7156 53.6718C43.2547 52.7043 43.7145 51.6948 44.0906 50.6531V50.6531Z" fill="#F8664F"/>
<path d="M25 53.125C30.1777 53.125 34.375 48.9277 34.375 43.75C34.375 38.5723 30.1777 34.375 25 34.375C19.8223 34.375 15.625 38.5723 15.625 43.75C15.625 48.9277 19.8223 53.125 25 53.125Z" fill="#C4F236"/>
<path d="M29.6876 48.4376C28.1208 48.4394 26.5787 48.0481 25.2024 47.2995C23.826 46.5509 22.6595 45.469 21.8097 44.1527C20.9599 42.8365 20.4539 41.328 20.3381 39.7656C20.2224 38.2031 20.5005 36.6366 21.147 35.2095C19.7621 35.8317 18.549 36.781 17.6121 37.9757C16.6752 39.1705 16.0425 40.5749 15.7683 42.0682C15.4942 43.5615 15.5869 45.099 16.0383 46.5486C16.4898 47.9982 17.2866 49.3165 18.3601 50.3901C19.4337 51.4636 20.752 52.2604 22.2016 52.7119C23.6512 53.1633 25.1887 53.256 26.682 52.9818C28.1753 52.7077 29.5797 52.075 30.7744 51.1381C31.9692 50.2012 32.9185 48.9881 33.5407 47.6032C32.3304 48.1525 31.0167 48.437 29.6876 48.4376Z" fill="#A1D51C"/>
<path d="M28.7625 52.3219C25.9651 51.5152 23.3735 50.1172 21.1631 48.2224C18.9527 46.3276 17.1749 43.9803 15.95 41.3391C15.4866 43.0442 15.5164 44.8458 16.0358 46.5347C16.5553 48.2236 17.5431 49.7305 18.8847 50.8804C20.2262 52.0304 21.8664 52.7762 23.6148 53.0314C25.3633 53.2865 27.1482 53.0405 28.7625 52.3219V52.3219Z" fill="#7AB92D"/>
<path d="M25.0001 35.9374C24.7426 35.9377 24.4891 35.8744 24.262 35.7531C24.035 35.6318 23.8414 35.4563 23.6985 35.2421L23.2704 34.5984C22.7624 33.8386 22.4912 32.9452 22.4912 32.0312C22.4912 31.1172 22.7624 30.2238 23.2704 29.464L23.6985 28.8203C23.8124 28.6495 23.9588 28.5029 24.1293 28.3888C24.2999 28.2746 24.4912 28.1952 24.6925 28.155C24.8937 28.1148 25.1009 28.1147 25.3022 28.1545C25.5035 28.1944 25.695 28.2736 25.8657 28.3874C26.0364 28.5013 26.183 28.6477 26.2972 28.8183C26.4113 28.9888 26.4907 29.1802 26.5309 29.3814C26.5711 29.5826 26.5713 29.7898 26.5314 29.9911C26.4915 30.1924 26.4124 30.3839 26.2985 30.5546L25.8704 31.1968C25.7053 31.4438 25.6172 31.7342 25.6172 32.0312C25.6172 32.3282 25.7053 32.6186 25.8704 32.8656L26.2985 33.5078C26.4554 33.743 26.5456 34.0163 26.5594 34.2988C26.5732 34.5812 26.5101 34.862 26.3768 35.1114C26.2435 35.3608 26.0451 35.5693 25.8026 35.7148C25.5602 35.8602 25.2828 35.9372 25.0001 35.9374V35.9374Z" fill="#7AB92D"/>
<path d="M39.0626 45.3125C38.7544 45.3128 38.4531 45.2214 38.197 45.05L37.5548 44.6203C37.308 44.4548 37.0175 44.3665 36.7204 44.3665C36.4233 44.3665 36.1328 44.4548 35.886 44.6203L35.2438 45.0484C35.0731 45.1623 34.8816 45.2414 34.6803 45.2813C34.479 45.3212 34.2719 45.321 34.0706 45.2808C33.8694 45.2406 33.678 45.1612 33.5075 45.0471C33.3369 44.9329 33.1905 44.7863 33.0767 44.6156C32.9628 44.4449 32.8836 44.2534 32.8438 44.0521C32.8039 43.8508 32.804 43.6436 32.8442 43.4424C32.9254 43.0359 33.1647 42.6784 33.5095 42.4484L34.1517 42.0203C34.9117 41.5114 35.8057 41.2397 36.7204 41.2397C37.6351 41.2397 38.5291 41.5114 39.2892 42.0203L39.9313 42.4484C40.2112 42.6343 40.4237 42.9054 40.5373 43.2215C40.6509 43.5377 40.6596 43.882 40.5621 44.2035C40.4646 44.525 40.266 44.8065 39.9959 45.0062C39.7258 45.206 39.3985 45.3134 39.0626 45.3125V45.3125Z" fill="#7AB92D"/>
<path d="M15.6248 45.3124C15.3829 45.3124 15.1444 45.2562 14.9279 45.1484L13.7779 44.5734C13.4959 44.4316 13.1764 44.3827 12.8649 44.4335C12.5534 44.4843 12.2659 44.6322 12.0435 44.8562C11.7501 45.1492 11.3524 45.3136 10.9378 45.3133C10.5231 45.313 10.1256 45.148 9.83261 44.8546C9.53963 44.5612 9.3752 44.1635 9.37549 43.7488C9.37578 43.3342 9.54077 42.9367 9.83417 42.6437C10.5212 41.9571 11.4068 41.504 12.3656 41.3487C13.3243 41.1933 14.3077 41.3435 15.1764 41.7781L16.3248 42.3515C16.6402 42.5087 16.8932 42.7679 17.0427 43.087C17.1922 43.4062 17.2295 43.7665 17.1484 44.1094C17.0673 44.4524 16.8727 44.7579 16.5961 44.9762C16.3195 45.1946 15.9772 45.3131 15.6248 45.3124V45.3124Z" fill="#5BA006"/>
<path d="M32.0313 57.4906C31.9969 57.4906 31.9626 57.4906 31.9282 57.4906C31.7234 57.4773 31.5232 57.4237 31.3391 57.3331C31.155 57.2424 30.9906 57.1163 30.8552 56.9621C30.7199 56.8078 30.6162 56.6284 30.5502 56.4341C30.4841 56.2398 30.457 56.0344 30.4704 55.8296L30.5204 55.0593C30.541 54.7627 30.4727 54.4667 30.3244 54.209C30.1761 53.9513 29.9544 53.7436 29.6876 53.6124L28.9954 53.2703C28.6265 53.0851 28.3459 52.7616 28.2148 52.3702C28.0836 51.9789 28.1126 51.5516 28.2955 51.1816C28.4783 50.8116 28.8001 50.5289 29.1906 50.3954C29.5811 50.2618 30.0086 50.2882 30.3798 50.4687L31.0735 50.8109C31.8934 51.2149 32.575 51.8531 33.032 52.6447C33.489 53.4363 33.7008 54.3457 33.6407 55.2578L33.5907 56.0296C33.5649 56.4256 33.3894 56.797 33.0998 57.0683C32.8102 57.3397 32.4282 57.4906 32.0313 57.4906V57.4906Z" fill="#7AB92D"/>
<path d="M20.3126 37.1874C20.0734 37.1896 19.837 37.1361 19.622 37.0312L18.9283 36.689C18.1084 36.285 17.4268 35.6468 16.9698 34.8552C16.5128 34.0636 16.301 33.1542 16.3611 32.2421L16.4111 31.4703C16.4223 31.2648 16.4745 31.0636 16.5645 30.8785C16.6545 30.6934 16.7805 30.5281 16.9352 30.3923C17.0899 30.2566 17.2701 30.1531 17.4653 30.0878C17.6605 30.0226 17.8668 29.997 18.072 30.0124C18.2768 30.0258 18.477 30.0793 18.6611 30.17C18.8452 30.2606 19.0096 30.3867 19.145 30.5409C19.2803 30.6952 19.384 30.8746 19.45 31.0689C19.5161 31.2632 19.5432 31.4686 19.5298 31.6734L19.4798 32.4437C19.46 32.74 19.5288 33.0354 19.6774 33.2925C19.8259 33.5496 20.0476 33.7567 20.3142 33.8874L21.0064 34.2296C21.3196 34.3875 21.5706 34.6461 21.719 34.9639C21.8674 35.2818 21.9045 35.6403 21.8244 35.9818C21.7444 36.3233 21.5517 36.6279 21.2775 36.8466C21.0032 37.0653 20.6634 37.1853 20.3126 37.1874V37.1874Z" fill="#7AB92D"/>
<path d="M33.1248 40.6251C32.8595 40.6246 32.5987 40.5565 32.367 40.4273C32.1353 40.2981 31.9403 40.112 31.8004 39.8866C31.6604 39.6612 31.5802 39.4038 31.5673 39.1389C31.5543 38.8739 31.6091 38.61 31.7263 38.372L32.0685 37.6782C32.4751 36.8603 33.1138 36.1804 33.9047 35.7235C34.6957 35.2666 35.6037 35.053 36.5154 35.1095L37.2857 35.1595C37.4905 35.1726 37.6907 35.2259 37.8749 35.3164C38.059 35.4069 38.2236 35.5328 38.3591 35.6869C38.4946 35.841 38.5985 36.0203 38.6647 36.2145C38.7309 36.4087 38.7582 36.6141 38.7451 36.8188C38.7347 37.0247 38.6831 37.2264 38.5934 37.4119C38.5037 37.5975 38.3777 37.7632 38.2228 37.8993C38.068 38.0353 37.8874 38.139 37.6919 38.204C37.4963 38.2691 37.2896 38.2944 37.0842 38.2782L36.3138 38.2282C36.0177 38.209 35.7225 38.2781 35.4655 38.4266C35.2085 38.5751 35.0013 38.7964 34.8701 39.0626L34.5279 39.7532C34.3989 40.0151 34.199 40.2356 33.951 40.3897C33.703 40.5438 33.4168 40.6254 33.1248 40.6251V40.6251Z" fill="#7AB92D"/>
<path d="M12.8236 52.3438C12.6864 52.3437 12.5499 52.3258 12.4173 52.2906C12.2191 52.2375 12.0333 52.1459 11.8705 52.0209C11.7077 51.896 11.5711 51.7402 11.4685 51.5624C11.3659 51.3847 11.2993 51.1885 11.2726 50.985C11.2459 50.7815 11.2595 50.5748 11.3126 50.3766C11.563 49.4376 12.1031 48.6016 12.856 47.9872C13.6089 47.3729 14.5363 47.0116 15.5064 46.9547L16.7876 46.8781C17.1994 46.8607 17.6018 47.0037 17.9102 47.2771C18.2185 47.5505 18.4087 47.9329 18.4408 48.3438C18.4534 48.5489 18.4255 48.7545 18.3586 48.9489C18.2917 49.1432 18.1871 49.3225 18.0508 49.4763C17.9145 49.6302 17.7492 49.7556 17.5644 49.8455C17.3795 49.9354 17.1787 49.9879 16.9736 50L15.6923 50.0766C15.3773 50.0955 15.0763 50.2132 14.832 50.4129C14.5877 50.6126 14.4126 50.8842 14.3314 51.1891C14.2418 51.5204 14.0456 51.8131 13.773 52.0218C13.5005 52.2305 13.1668 52.3436 12.8236 52.3438Z" fill="#5BA006"/>
<path d="M36.2043 52.4001C35.3419 52.4007 34.4965 52.1596 33.7641 51.7042C33.0317 51.2488 32.4416 50.5973 32.0605 49.8235L31.7184 49.1282C31.6202 48.9435 31.5601 48.741 31.5417 48.5326C31.5233 48.3242 31.5469 48.1143 31.6111 47.9152C31.6754 47.7161 31.779 47.5319 31.9157 47.3736C32.0524 47.2153 32.2196 47.0861 32.4072 46.9936C32.5948 46.9011 32.7991 46.8472 33.0079 46.8351C33.2168 46.823 33.4259 46.853 33.623 46.9233C33.82 46.9936 34.0009 47.1027 34.155 47.2442C34.3091 47.3856 34.4332 47.5566 34.5199 47.747L34.8621 48.4392C34.9934 48.7052 35.2007 48.9263 35.4577 49.0746C35.7147 49.2228 36.0098 49.2915 36.3059 49.272L37.0762 49.222C37.2817 49.2059 37.4883 49.2311 37.6839 49.2962C37.8794 49.3612 38.06 49.4649 38.2148 49.6009C38.3697 49.737 38.4957 49.9027 38.5854 50.0883C38.6751 50.2738 38.7267 50.4755 38.7371 50.6814C38.7503 50.8861 38.7229 51.0915 38.6567 51.2857C38.5905 51.4799 38.4866 51.6592 38.3511 51.8133C38.2156 51.9674 38.0511 52.0933 37.8669 52.1838C37.6827 52.2743 37.4825 52.3276 37.2777 52.3407L36.5074 52.3907C36.4059 52.397 36.3043 52.4001 36.2043 52.4001V52.4001Z" fill="#7AB92D"/>
<path d="M26.7278 52.9015L26.2997 52.2578C26.1858 52.087 26.0394 51.9404 25.8689 51.8263C25.6984 51.7121 25.507 51.6327 25.3058 51.5925C25.1045 51.5523 24.8973 51.5522 24.696 51.5921C24.4947 51.6319 24.3032 51.7111 24.1325 51.8249C23.9618 51.9388 23.8152 52.0852 23.701 52.2558C23.5869 52.4263 23.5075 52.6177 23.4673 52.8189C23.4271 53.0201 23.4269 53.2273 23.4668 53.4286C23.5067 53.6299 23.5858 53.8214 23.6997 53.9921L24.1278 54.6343C24.2929 54.8813 24.381 55.1717 24.381 55.4687C24.381 55.7657 24.2929 56.0561 24.1278 56.3031L23.6997 56.9453C23.4697 57.29 23.3861 57.7121 23.4673 58.1185C23.5484 58.5249 23.7877 58.8825 24.1325 59.1125C24.4773 59.3424 24.8993 59.4261 25.3058 59.3449C25.7122 59.2637 26.0697 59.0244 26.2997 58.6796L26.7278 58.0359C27.2358 57.2761 27.507 56.3827 27.507 55.4687C27.507 54.5547 27.2358 53.6613 26.7278 52.9015V52.9015Z" fill="#5BA006"/>
<path d="M17.939 37.6766C17.5352 36.8566 16.897 36.1749 16.1054 35.7179C15.3137 35.2609 14.4043 35.0491 13.4922 35.1094L12.7219 35.1594C12.5171 35.1726 12.3169 35.2259 12.1327 35.3164C11.9485 35.4069 11.784 35.5328 11.6485 35.6869C11.513 35.8409 11.4091 36.0202 11.3429 36.2144C11.2767 36.4087 11.2493 36.614 11.2625 36.8188C11.2727 37.0247 11.3242 37.2265 11.4138 37.4122C11.5034 37.5979 11.6294 37.7637 11.7843 37.8998C11.9392 38.0359 12.1198 38.1395 12.3155 38.2045C12.5112 38.2695 12.7179 38.2945 12.9234 38.2782L13.6937 38.2282C13.9898 38.2096 14.2848 38.2789 14.5416 38.4274C14.7984 38.5758 15.0057 38.7968 15.1375 39.0626L15.4797 39.7548C15.5664 39.9451 15.6905 40.1161 15.8446 40.2576C15.9987 40.3991 16.1796 40.5082 16.3766 40.5784C16.5737 40.6487 16.7828 40.6787 16.9916 40.6666C17.2005 40.6545 17.4048 40.6007 17.5924 40.5082C17.78 40.4156 17.9472 40.2864 18.0839 40.1281C18.2206 39.9698 18.3242 39.7856 18.3885 39.5866C18.4527 39.3875 18.4763 39.1775 18.4579 38.9692C18.4395 38.7608 18.3794 38.5582 18.2812 38.3735L17.939 37.6766Z" fill="#7AB92D"/>
<path d="M17.9688 57.4906C17.5714 57.4914 17.1886 57.3408 16.8984 57.0694C16.6081 56.798 16.4321 56.4262 16.4063 56.0296L16.3563 55.2593C16.2959 54.347 16.5075 53.4373 16.9646 52.6454C17.4216 51.8535 18.1033 51.215 18.9235 50.8109L19.6172 50.4687C19.9884 50.2882 20.4159 50.2618 20.8064 50.3954C21.1969 50.5289 21.5187 50.8116 21.7015 51.1816C21.8843 51.5516 21.9134 51.9789 21.7822 52.3702C21.6511 52.7616 21.3705 53.0851 21.0016 53.2703L20.3125 53.6124C20.0457 53.7433 19.8238 53.9506 19.6753 54.208C19.5267 54.4654 19.4581 54.7612 19.4782 55.0578L19.5282 55.8265C19.5415 56.0313 19.5144 56.2367 19.4484 56.431C19.3824 56.6253 19.2787 56.8047 19.1433 56.9589C19.0079 57.1132 18.8435 57.2392 18.6594 57.3299C18.4753 57.4206 18.2751 57.4741 18.0704 57.4874C18.036 57.4906 18.0016 57.4906 17.9688 57.4906V57.4906Z" fill="#5BA006"/>
<path d="M29.6877 37.1874H29.5924C29.1791 37.1628 28.7925 36.9753 28.5174 36.6659C28.2423 36.3566 28.1013 35.9507 28.1252 35.5374L28.2017 34.2561C28.2591 33.2862 28.6206 32.359 29.2348 31.6062C29.8491 30.8534 30.6849 30.3132 31.6236 30.0624C31.8237 30.0029 32.0337 29.9841 32.2411 30.0071C32.4486 30.0301 32.6494 30.0944 32.8316 30.1963C33.0138 30.2981 33.1737 30.4355 33.3019 30.6002C33.4302 30.7649 33.5241 30.9536 33.5782 31.1552C33.6323 31.3568 33.6454 31.5672 33.6168 31.774C33.5882 31.9808 33.5185 32.1797 33.4118 32.3591C33.305 32.5385 33.1634 32.6947 32.9953 32.8184C32.8272 32.9422 32.636 33.031 32.433 33.0796C32.1279 33.1611 31.8563 33.3365 31.6566 33.5811C31.4569 33.8257 31.3393 34.1269 31.3205 34.4421L31.2439 35.7233C31.2189 36.1194 31.0442 36.491 30.7552 36.7629C30.4661 37.0348 30.0845 37.1866 29.6877 37.1874V37.1874Z" fill="#7AB92D"/>
<path d="M25 53.125C30.1777 53.125 34.375 48.9277 34.375 43.75C34.375 38.5723 30.1777 34.375 25 34.375C19.8223 34.375 15.625 38.5723 15.625 43.75C15.625 48.9277 19.8223 53.125 25 53.125Z" fill="#C4F236"/>
<path d="M29.6876 48.4376C28.1208 48.4394 26.5787 48.0481 25.2024 47.2995C23.826 46.5509 22.6595 45.469 21.8097 44.1527C20.9599 42.8365 20.4539 41.328 20.3381 39.7656C20.2224 38.2031 20.5005 36.6366 21.147 35.2095C19.7621 35.8317 18.549 36.781 17.6121 37.9757C16.6752 39.1705 16.0425 40.5749 15.7683 42.0682C15.4942 43.5615 15.5869 45.099 16.0383 46.5486C16.4898 47.9982 17.2866 49.3165 18.3601 50.3901C19.4337 51.4636 20.752 52.2604 22.2016 52.7119C23.6512 53.1633 25.1887 53.256 26.682 52.9818C28.1753 52.7077 29.5797 52.075 30.7744 51.1381C31.9692 50.2012 32.9185 48.9881 33.5407 47.6032C32.3304 48.1525 31.0167 48.437 29.6876 48.4376Z" fill="#A1D51C"/>
<path d="M26.5625 48.4375C24.9049 48.4375 23.3152 47.779 22.1431 46.6069C20.971 45.4348 20.3125 43.8451 20.3125 42.1875C20.3125 41.7731 20.4771 41.3757 20.7701 41.0826C21.0632 40.7896 21.4606 40.625 21.875 40.625C22.2894 40.625 22.6868 40.7896 22.9799 41.0826C23.2729 41.3757 23.4375 41.7731 23.4375 42.1875C23.4375 43.0163 23.7667 43.8112 24.3528 44.3972C24.9388 44.9833 25.7337 45.3125 26.5625 45.3125C26.9769 45.3125 27.3743 45.4771 27.6674 45.7701C27.9604 46.0632 28.125 46.4606 28.125 46.875C28.125 47.2894 27.9604 47.6868 27.6674 47.9799C27.3743 48.2729 26.9769 48.4375 26.5625 48.4375Z" fill="#7AB92D"/>
<path d="M28.125 43.75C28.9879 43.75 29.6875 43.0504 29.6875 42.1875C29.6875 41.3246 28.9879 40.625 28.125 40.625C27.2621 40.625 26.5625 41.3246 26.5625 42.1875C26.5625 43.0504 27.2621 43.75 28.125 43.75Z" fill="#7AB92D"/>
<path d="M28.7625 52.3219C25.9651 51.5152 23.3735 50.1172 21.1631 48.2224C18.9527 46.3276 17.1749 43.9803 15.95 41.3391C15.4866 43.0442 15.5164 44.8458 16.0358 46.5347C16.5553 48.2236 17.5431 49.7305 18.8847 50.8804C20.2262 52.0304 21.8664 52.7762 23.6148 53.0314C25.3633 53.2865 27.1482 53.0405 28.7625 52.3219V52.3219Z" fill="#7AB92D"/>
<path d="M28.9956 53.2704L29.6878 53.6126C29.9544 53.7434 30.1761 53.9504 30.3246 54.2075C30.4732 54.4646 30.542 54.7601 30.5222 55.0563L30.4722 55.8267C30.4588 56.0314 30.4859 56.2369 30.552 56.4312C30.618 56.6255 30.7217 56.8049 30.857 56.9591C30.9924 57.1133 31.1568 57.2394 31.3409 57.3301C31.525 57.4208 31.7252 57.4743 31.93 57.4876H32.0331C32.4305 57.4884 32.8133 57.3378 33.1035 57.0664C33.3938 56.795 33.5698 56.4232 33.5956 56.0267L33.6456 55.2548C33.6916 54.5037 33.5532 53.7527 33.2425 53.0673C31.5241 52.9792 29.824 52.6726 28.1831 52.1548C28.222 52.3913 28.3157 52.6154 28.4568 52.8091C28.5979 53.0028 28.7825 53.1608 28.9956 53.2704V53.2704Z" fill="#5BA006"/>
<path d="M12.7219 35.1562C12.5171 35.1693 12.3169 35.2226 12.1327 35.3131C11.9485 35.4036 11.784 35.5295 11.6485 35.6836C11.513 35.8377 11.4091 36.017 11.3429 36.2112C11.2767 36.4054 11.2493 36.6108 11.2625 36.8155C11.2727 37.0215 11.3242 37.2233 11.4138 37.4089C11.5034 37.5946 11.6294 37.7604 11.7843 37.8965C11.9392 38.0326 12.1198 38.1362 12.3155 38.2012C12.5112 38.2662 12.7179 38.2913 12.9234 38.2749L13.6937 38.2249C13.9374 38.2119 14.1805 38.2584 14.4022 38.3605C14.6238 38.4626 14.8172 38.6172 14.9656 38.8109C14.5968 37.6061 14.3415 36.3694 14.2031 35.1171C13.9667 35.0962 13.7291 35.0926 13.4922 35.1062L12.7219 35.1562Z" fill="#5BA006"/>
<path d="M71.8748 82.8125C75.7784 82.8184 79.6217 81.8491 83.0557 79.9927C86.4896 78.1364 89.4056 75.4517 91.5387 72.1824C93.6718 68.9132 94.9546 65.1629 95.2706 61.2721C95.5866 57.3813 94.9257 53.4732 93.348 49.9026C91.7703 46.3319 89.3258 43.212 86.2364 40.8258C83.1469 38.4397 79.5104 36.863 75.657 36.239C71.8036 35.6149 67.8553 35.9632 64.1706 37.2522C60.486 38.5412 57.1816 40.7302 54.5576 43.6203L60.0826 49.1453C61.7964 47.1666 63.9799 45.6502 66.4325 44.7354C68.8851 43.8205 71.5282 43.5364 74.1192 43.9093C76.7102 44.2822 79.1659 45.3001 81.261 46.8695C83.3561 48.4388 85.0233 50.5094 86.1095 52.8911C87.1958 55.2727 87.6663 57.8891 87.4778 60.5C87.2893 63.1109 86.4479 65.6326 85.0309 67.8335C83.6138 70.0345 81.6665 71.8441 79.3677 73.0963C77.069 74.3485 74.4925 75.0031 71.8748 75V82.8125Z" fill="#57B7EB"/>
<path d="M92.1874 62.4999C92.191 59.1257 91.4629 55.7907 90.0532 52.725C88.6434 49.6593 86.5857 46.9358 84.0218 44.7421C81.909 42.908 80.5899 40.3259 80.3421 37.539C76.7099 36.1166 72.7782 35.6305 68.909 36.1256C65.0397 36.6206 61.357 38.0808 58.1999 40.3718L58.078 40.5843L57.1765 42.1468C56.3244 42.6404 55.5041 43.1868 54.7202 43.7828L60.0827 49.1453C61.7965 47.1666 63.98 45.6502 66.4326 44.7353C68.8851 43.8204 71.5283 43.5364 74.1193 43.9093C76.7103 44.2822 79.166 45.3001 81.2611 46.8694C83.3562 48.4388 85.0234 50.5094 86.1096 52.891C87.1959 55.2727 87.6664 57.8891 87.4779 60.5C87.2894 63.1109 86.448 65.6325 85.031 67.8335C83.6139 70.0344 81.6666 71.8441 79.3678 73.0963C77.0691 74.3485 74.4926 75.0031 71.8749 74.9999V82.8124C77.3288 82.8206 82.6134 80.9183 86.8108 77.4359C90.293 73.2383 92.1953 67.9538 92.1874 62.4999Z" fill="#4891D3"/>
<path d="M50 76.5625H43.75C43.75 79.8777 45.067 83.0571 47.4112 85.4013C49.7554 87.7455 52.9348 89.0625 56.25 89.0625H62.5V82.8125H56.25C54.5924 82.8125 53.0027 82.154 51.8306 80.9819C50.6585 79.8098 50 78.2201 50 76.5625Z" fill="#FCBC04"/>
<path d="M75 61.9797C78.3152 61.9797 81.4946 63.2967 83.8388 65.6409C86.183 67.9851 87.5 71.1645 87.5 74.4797V82.8125C87.5 86.1278 86.183 89.3072 83.8388 91.6514C81.4946 93.9956 78.3152 95.3125 75 95.3125H62.5V74.4797C62.5 71.1645 63.817 67.9851 66.1612 65.6409C68.5054 63.2967 71.6848 61.9797 75 61.9797V61.9797Z" fill="#84D2F4"/>
<path d="M65.1079 21.4307L78.6392 29.2432L64.5767 53.5994L51.0454 45.7869L65.1079 21.4307Z" fill="#84D2F4"/>
<path d="M53.7515 47.3486L61.8702 52.0361L57.1827 60.1549L49.064 55.4674L53.7515 47.3486Z" fill="#57B7EB"/>
<path d="M61.2017 28.1963L67.9673 32.1025L61.7173 42.9275L54.9517 39.0213L61.2017 28.1963Z" fill="#F9E109"/>
<path d="M70.938 17.5786L79.0567 22.2661L75.9317 27.6786L67.813 22.9911L70.938 17.5786Z" fill="#4891D3"/>
<path d="M83.1188 24.6109L66.8813 15.2359L71.5688 7.11719L86.2438 19.1984L83.1188 24.6109Z" fill="#84D2F4"/>
<path d="M74.7625 27.0032L67.7031 39.2313C67.088 40.2988 66.2686 41.2346 65.2916 41.9852C64.3146 42.7358 63.1993 43.2864 62.0094 43.6057C60.8194 43.9249 59.5782 44.0065 58.3568 43.8458C57.1353 43.685 55.9574 43.2851 54.8906 42.6688L53.3563 41.7829L51.0469 45.7813L64.5781 53.5938L78.6406 29.236L74.7625 27.0032Z" fill="#57B7EB"/>
<path d="M53.7498 47.3438L51.9014 50.5453L53.1248 51.25C53.6586 51.5575 54.1265 51.9673 54.5018 52.4558C54.877 52.9442 55.1524 53.5019 55.312 54.0969C55.4716 54.6918 55.5124 55.3124 55.432 55.9232C55.3517 56.5339 55.1517 57.1228 54.8436 57.6563L54.3482 58.5141L57.1873 60.1563L61.8748 52.0312L53.7498 47.3438Z" fill="#4891D3"/>
<path d="M83.9625 17.3204L83.9 17.4267C83.5925 17.9604 83.1827 18.4283 82.6943 18.8036C82.2058 19.1789 81.6481 19.4542 81.0531 19.6139C80.4582 19.7735 79.8376 19.8143 79.2268 19.7339C78.6161 19.6535 78.0272 19.4535 77.4938 19.1454L67.8437 13.5688L66.875 15.236L83.1125 24.611L86.2375 19.1985L83.9625 17.3204Z" fill="#57B7EB"/>
<path d="M61.7187 42.928L54.9531 39.0218L61.2031 28.1968L61.7187 42.928Z" fill="#FCBC04"/>
<path d="M81.25 89.0626C79.3032 89.0625 77.3834 88.6066 75.6445 87.7312C73.9056 86.8559 72.3957 85.5856 71.2359 84.022C71.9488 84.2456 72.6904 84.3646 73.4375 84.3751C74.6799 84.3826 75.9062 84.0937 77.0146 83.5324C78.1229 82.9711 79.0815 82.1535 79.8106 81.1475C80.5397 80.1416 81.0184 78.9762 81.2069 77.7482C81.3954 76.5201 81.2883 75.2649 80.8945 74.0865C80.5007 72.9082 79.8316 71.8407 78.9426 70.9728C78.0537 70.1048 76.9705 69.4614 75.7831 69.0959C74.5956 68.7304 73.3381 68.6534 72.115 68.8713C70.8918 69.0891 69.7382 69.5956 68.75 70.3485V68.2298C68.751 66.4576 69.1303 64.7061 69.8625 63.0923C67.6698 64.0808 65.8088 65.681 64.5029 67.7009C63.197 69.7208 62.5015 72.0745 62.5 74.4798V95.3126H75C77.4053 95.3111 79.759 94.6156 81.7789 93.3097C83.7987 92.0038 85.3989 90.1428 86.3875 87.9501C84.7736 88.6822 83.0221 89.0614 81.25 89.0626Z" fill="#57B7EB"/>
<path d="M75 81.25C78.4518 81.25 81.25 78.4518 81.25 75C81.25 71.5482 78.4518 68.75 75 68.75C71.5482 68.75 68.75 71.5482 68.75 75C68.75 78.4518 71.5482 81.25 75 81.25Z" fill="#F9E109"/>
<path d="M59.375 82.8125V85.9375H57.8125C55.6199 85.9369 53.4661 85.359 51.5678 84.2619C49.6695 83.1647 48.0935 81.587 46.9984 79.6875H50C50.2769 79.6816 50.5531 79.6566 50.8266 79.6125C50.2912 78.6847 50.0064 77.6336 50 76.5625H43.75C43.75 79.8777 45.067 83.0571 47.4112 85.4013C49.7554 87.7455 52.9348 89.0625 56.25 89.0625H62.5V82.8125H59.375Z" fill="#E59730"/>
<path d="M59.375 89.0625C59.375 89.8913 59.0458 90.6862 58.4597 91.2722C57.8737 91.8583 57.0788 92.1875 56.25 92.1875H48.4375C47.6087 92.1875 46.8138 91.8583 46.2278 91.2722C45.6417 90.6862 45.3125 89.8913 45.3125 89.0625H43.75C42.0924 89.0625 40.5027 89.721 39.3306 90.8931C38.1585 92.0652 37.5 93.6549 37.5 95.3125H62.5V89.0625H59.375Z" fill="#4891D3"/>
<path d="M53.125 73.4375H43.75C42.6574 73.4351 41.5847 73.145 40.6397 72.5965C39.6948 72.0479 38.911 71.2602 38.3672 70.3125H34.375C34.375 71.9701 35.0335 73.5598 36.2056 74.7319C37.3777 75.904 38.9674 76.5625 40.625 76.5625H50C51.2025 76.5612 52.379 76.2124 53.388 75.5582C54.397 74.904 55.1955 73.9723 55.6875 72.875C54.8833 73.2435 54.0096 73.4353 53.125 73.4375V73.4375Z" fill="#FCBC04"/>
<path d="M78.1248 78.125C77.0801 78.1289 76.0512 77.8699 75.1329 77.3719C74.2146 76.8738 73.4364 76.1527 72.8699 75.2749C72.3034 74.3972 71.9668 73.391 71.8912 72.349C71.8157 71.3071 72.0034 70.2628 72.4373 69.3125C71.5146 69.7263 70.7062 70.3581 70.0818 71.1536C69.4573 71.949 69.0354 72.8843 68.8525 73.8789C68.6696 74.8735 68.731 75.8976 69.0315 76.8632C69.3321 77.8288 69.8627 78.7069 70.5778 79.422C71.2929 80.1371 72.171 80.6677 73.1366 80.9683C74.1022 81.2688 75.1263 81.3303 76.1209 81.1473C77.1155 80.9644 78.0508 80.5425 78.8462 79.9181C79.6417 79.2936 80.2735 78.4852 80.6873 77.5625C79.8832 77.931 79.0094 78.1228 78.1248 78.125V78.125Z" fill="#FCBC04"/>
<path d="M75 76.5625C75.8629 76.5625 76.5625 75.8629 76.5625 75C76.5625 74.1371 75.8629 73.4375 75 73.4375C74.1371 73.4375 73.4375 74.1371 73.4375 75C73.4375 75.8629 74.1371 76.5625 75 76.5625Z" fill="#E59730"/>
</svg>
