<svg width="225" height="225" viewBox="0 0 225 225" fill="none" xmlns="http://www.w3.org/2000/svg">
<g id="student">
<g clip-path="url(#clip0)">
<g id="Group">
<g id="Group_2">
<path id="Vector" d="M60.1228 198.792L51.3682 145.766C50.6943 141.684 52.1952 137.546 55.3293 134.846L75.9026 117.118C80.866 112.84 88.3577 113.397 92.6353 118.361C96.9129 123.325 96.3561 130.816 91.3923 135.094L75.8651 148.473L83.5347 194.926C84.6021 201.391 80.2264 207.498 73.7616 208.565C67.2716 209.637 61.1862 205.233 60.1228 198.792Z" fill="#748488"/>
</g>
<g id="Group_3">
<path id="Vector_2" d="M123.135 208.565C116.671 207.497 112.295 201.391 113.362 194.926L121.032 148.473L105.505 135.093C100.541 130.816 99.9845 123.324 104.262 118.36C108.539 113.397 116.031 112.84 120.994 117.117L141.567 134.845C144.701 137.546 146.202 141.684 145.528 145.766L136.774 198.791C135.704 205.274 129.583 209.63 123.135 208.565Z" fill="#55696E"/>
</g>
<g id="Group_4">
<path id="Vector_3" d="M64.3861 83.9586L64.4019 83.9067C64.3702 83.9234 64.3619 83.9406 64.3861 83.9586Z" fill="#64AFFF"/>
<path id="Vector_4" d="M145.227 52.713C142.096 42.6044 132.882 35.813 122.301 35.813H74.7786C64.1968 35.813 54.9836 42.6044 51.8522 52.713L43.4475 79.8497L51.6774 85.391L64.5133 83.5476L68.5779 70.4238V124.89H128.302V69.7803L132.672 82.9789L144.573 86.7881L153.631 79.8497L145.227 52.713Z" fill="#B80F0A"/>
</g>
<g id="pencil">
<path id="Vector_5" d="M87.3899 95.309C86.0971 95.309 84.8646 94.5585 84.3118 93.2987L74.3053 70.5061C73.5592 68.807 74.3322 66.8249 76.0312 66.0788C77.7299 65.3327 79.7124 66.1057 80.4585 67.8047L90.465 90.5974C91.211 92.2964 90.4381 94.2785 88.739 95.0246C88.2993 95.2174 87.8411 95.309 87.3899 95.309V95.309Z" fill="#46738C"/>
</g>
<g id="Group_5">
<g id="Group_6">
<path id="Vector_6" d="M24.3048 225C20.5937 225 17.5847 221.991 17.5847 218.28V129.065C17.5847 125.354 20.5933 122.345 24.3048 122.345C28.0164 122.345 31.025 125.354 31.025 129.065V218.279C31.025 221.991 28.0164 225 24.3048 225V225Z" fill="#B48255"/>
</g>
<g id="Group_7">
<path id="Vector_7" d="M197.607 225C193.896 225 190.887 221.991 190.887 218.28V129.065C190.887 125.354 193.896 122.345 197.607 122.345C201.319 122.345 204.327 125.354 204.327 129.065V218.279C204.327 221.991 201.319 225 197.607 225V225Z" fill="#B48255"/>
</g>
</g>
<path id="head" d="M98.8881 43.9716C111.031 43.9716 120.874 34.1282 120.874 21.9858C120.874 9.84337 111.031 0 98.8881 0C86.7457 0 76.9023 9.84337 76.9023 21.9858C76.9023 34.1282 86.7457 43.9716 98.8881 43.9716Z" fill="#BA6746"/>
<g id="Group_8">
<path id="Vector_8" d="M158.06 72.1956V82.3671C158.06 83.9359 159.332 85.2071 160.9 85.2071H192.197L196.46 83.7946L200.723 85.2071H210.638C212.207 85.2071 213.478 83.9355 213.478 82.3671V72.1956C213.478 70.6273 212.206 69.3556 210.638 69.3556H200.723L196.46 70.9112L192.197 69.3556H160.9C159.332 69.3556 158.06 70.6273 158.06 72.1956Z" fill="#46738C"/>
<path id="Vector_9" d="M192.198 69.3556H200.724V85.2071H192.198V69.3556Z" fill="#1865F2"/>
</g>
<g id="Group_9">
<path id="Vector_10" d="M217.078 103.899V114.07C217.078 115.639 215.806 116.91 214.238 116.91H182.94L178.677 115.498L174.414 116.91H164.5C162.931 116.91 161.66 115.639 161.66 114.07V103.899C161.66 102.33 162.931 101.059 164.5 101.059H174.414L178.677 102.615L182.94 101.059H214.238C215.806 101.059 217.078 102.331 217.078 103.899V103.899Z" fill="#46738C"/>
<path id="Vector_11" d="M174.415 101.059H182.94V116.91H174.415V101.059Z" fill="#1865F2"/>
</g>
<g id="Group_10">
<path id="Vector_12" d="M222.005 88.0481V98.2196C222.005 99.7884 220.733 101.06 219.165 101.06H187.867L183.604 99.6471L179.341 101.06H169.427C167.858 101.06 166.587 99.7879 166.587 98.2196V88.0481C166.587 86.4797 167.858 85.2081 169.427 85.2081H179.341L183.604 86.7636L187.867 85.2081H219.165C220.733 85.2076 222.005 86.4793 222.005 88.0481Z" fill="#6C9BAA"/>
<path id="Vector_13" d="M179.341 85.2071H187.867V101.059H179.341V85.2071Z" fill="#1865F2"/>
</g>
<g id="Group_11">
<path id="Vector_14" d="M2.99585 121.904V129.711C2.99585 132.469 5.23149 134.705 7.98962 134.705H213.923C216.681 134.705 218.916 132.469 218.916 129.711V121.904C218.916 119.146 216.681 116.911 213.923 116.911H7.98962C5.23149 116.911 2.99585 119.147 2.99585 121.904V121.904Z" fill="#DCBE82"/>
</g>
<path id="Vector_15" d="M50.157 110.877C50.157 114.209 52.8583 116.911 56.1909 116.911H98.8877C98.8877 113.578 96.1864 110.877 92.8538 110.877H50.157Z" fill="#46738C"/>
<path id="Vector_16" d="M147.618 110.877C147.618 114.209 144.917 116.911 141.584 116.911H98.8875C98.8875 113.578 101.589 110.877 104.921 110.877H147.618Z" fill="#6C9BAA"/>
<g id="Group_12">
<path id="Vector_17" d="M158.947 97.0116L153.632 79.8492L132.672 82.9784L134.459 89.6598C129.275 89.6598 113.744 89.6598 109.38 89.6598C103.521 89.6598 98.772 94.4092 98.772 100.268C98.772 106.127 103.521 110.876 109.38 110.876H148.851C156.049 110.877 161.146 103.835 158.947 97.0116Z" fill="#BA6746"/>
<path id="Vector_18" d="M87.6988 89.6603C82.8437 89.6603 67.8527 89.6603 62.6195 89.6603L64.5127 83.5476L43.4473 79.8502L38.1326 97.0099C35.9388 103.811 40.9929 110.877 48.2289 110.877H87.6993C93.558 110.877 98.3074 106.128 98.3074 100.269C98.3074 94.4102 93.5575 89.6603 87.6988 89.6603Z" fill="#BA6746"/>
</g>
</g>
</g>
</g>
<defs>
<clipPath id="clip0">
<rect width="225" height="225" fill="white"/>
</clipPath>
</defs>
</svg>
